<?xml version="1.0" encoding="UTF-8"?><svg id="Objects" xmlns="http://www.w3.org/2000/svg" viewBox="0 0 160 223.91"><path d="m17.22.5h125.55c9.23,0,16.72,7.49,16.72,16.72v189.46c0,9.23-7.49,16.72-16.72,16.72H17.22c-9.23,0-16.72-7.49-16.72-16.72V17.22C.5,7.99,7.99.5,17.22.5Z" style="fill:#fff;"/><path d="m142.78,1c8.95,0,16.22,7.28,16.22,16.22v189.46c0,8.95-7.28,16.22-16.22,16.22H17.22c-8.95,0-16.22-7.28-16.22-16.22V17.22C1,8.28,8.28,1,17.22,1h125.55M142.78,0H17.22C7.71,0,0,7.71,0,17.22v189.46c0,9.51,7.71,17.22,17.22,17.22h125.55c9.51,0,17.22-7.71,17.22-17.22V17.22C160,7.71,152.29,0,142.78,0h0Z" style="fill:#a5a5a5;"/><path d="m61.35,40.31c-5.3-.13-6.52,3.92-6.8,5.86-.28-1.95-1.5-5.99-6.8-5.86-6.96.17-7.89,7.97-5.45,11.91,2.43,3.94,3.69,5.2,6.13,7.72,2.29,2.37,5.03,5.04,6.04,6.67,0,0,.05.19.08.14.03.05.08-.14.08-.14,1.01-1.63,3.75-4.3,6.04-6.67,2.43-2.52,3.69-3.78,6.13-7.72,2.43-3.94,1.51-11.75-5.45-11.91Z" style="fill:#af0f07;"/><path d="m112.24,40.31c-5.3-.13-6.52,3.92-6.8,5.86-.28-1.95-1.5-5.99-6.8-5.86-6.96.17-7.89,7.97-5.45,11.91,2.43,3.94,3.69,5.2,6.13,7.72,2.29,2.37,5.03,5.04,6.04,6.67,0,0,.05.19.08.14.03.05.08-.14.08-.14,1.01-1.63,3.75-4.3,6.04-6.67,2.43-2.52,3.69-3.78,6.13-7.72,2.43-3.94,1.51-11.75-5.45-11.91Z" style="fill:#af0f07;"/><path d="m61.35,100.8c-5.3-.13-6.52,3.92-6.8,5.86-.28-1.95-1.5-5.99-6.8-5.86-6.96.17-7.89,7.97-5.45,11.91,2.43,3.94,3.69,5.2,6.13,7.72,2.29,2.37,5.03,5.04,6.04,6.67,0,0,.05.19.08.14.03.05.08-.14.08-.14,1.01-1.63,3.75-4.3,6.04-6.67,2.43-2.52,3.69-3.78,6.13-7.72,2.43-3.94,1.51-11.75-5.45-11.91Z" style="fill:#af0f07;"/><path d="m112.24,100.8c-5.3-.13-6.52,3.92-6.8,5.86-.28-1.95-1.5-5.99-6.8-5.86-6.96.17-7.89,7.97-5.45,11.91,2.43,3.94,3.69,5.2,6.13,7.72,2.29,2.37,5.03,5.04,6.04,6.67,0,0,.05.19.08.14.03.05.08-.14.08-.14,1.01-1.63,3.75-4.3,6.04-6.67,2.43-2.52,3.69-3.78,6.13-7.72,2.43-3.94,1.51-11.75-5.45-11.91Z" style="fill:#af0f07;"/><path d="m61.35,183.6c-5.3.13-6.52-3.92-6.8-5.86-.28,1.95-1.5,5.99-6.8,5.86-6.96-.17-7.89-7.97-5.45-11.91,2.43-3.94,3.69-5.2,6.13-7.72,2.29-2.37,5.03-5.04,6.04-6.67,0,0,.05-.19.08-.14.03-.05.08.14.08.14,1.01,1.63,3.75,4.3,6.04,6.67,2.43,2.52,3.69,3.78,6.13,7.72,2.43,3.94,1.51,11.75-5.45,11.91Z" style="fill:#af0f07;"/><path d="m112.24,183.6c-5.3.13-6.52-3.92-6.8-5.86-.28,1.95-1.5,5.99-6.8,5.86-6.96-.17-7.89-7.97-5.45-11.91,2.43-3.94,3.69-5.2,6.13-7.72,2.29-2.37,5.03-5.04,6.04-6.67,0,0,.05-.19.08-.14.03-.05.08.14.08.14,1.01,1.63,3.75,4.3,6.04,6.67,2.43,2.52,3.69,3.78,6.13,7.72,2.43,3.94,1.51,11.75-5.45,11.91Z" style="fill:#af0f07;"/><path d="m86.8,69.52c-5.3-.13-6.52,3.92-6.8,5.86-.28-1.95-1.5-5.99-6.8-5.86-6.96.17-7.89,7.97-5.45,11.91,2.43,3.94,3.69,5.2,6.13,7.72,2.29,2.37,5.03,5.04,6.04,6.67,0,0,.05.19.08.14.03.05.08-.14.08-.14,1.01-1.63,3.75-4.3,6.04-6.67,2.43-2.52,3.69-3.78,6.13-7.72,2.43-3.94,1.51-11.75-5.45-11.91Z" style="fill:#af0f07;"/><text transform="translate(12.19 28.2)" style="fill:#af0f07; font-family:Cafe24Ssurround, &apos;Cafe24 Ssurround&apos;; font-size:25px;"><tspan x="0" y="0">7</tspan></text><text transform="translate(147.81 195.71) rotate(-180)" style="fill:#af0f07; font-family:Cafe24Ssurround, &apos;Cafe24 Ssurround&apos;; font-size:25px;"><tspan x="0" y="0">7</tspan></text></svg>