<?xml version="1.0" encoding="UTF-8"?><svg id="Objects" xmlns="http://www.w3.org/2000/svg" viewBox="0 0 160 223.91"><path d="m17.22.5h125.55c9.23,0,16.72,7.49,16.72,16.72v189.46c0,9.23-7.49,16.72-16.72,16.72H17.22c-9.23,0-16.72-7.49-16.72-16.72V17.22C.5,7.99,7.99.5,17.22.5Z" style="fill:#fff;"/><path d="m142.78,1c8.95,0,16.22,7.28,16.22,16.22v189.46c0,8.95-7.28,16.22-16.22,16.22H17.22c-8.95,0-16.22-7.28-16.22-16.22V17.22C1,8.28,8.28,1,17.22,1h125.55M142.78,0H17.22C7.71,0,0,7.71,0,17.22v189.46c0,9.51,7.71,17.22,17.22,17.22h125.55c9.51,0,17.22-7.71,17.22-17.22V17.22C160,7.71,152.29,0,142.78,0h0Z" style="fill:#a5a5a5;"/><path d="m92.82,45.72c-9.99-.24-12.29,7.39-12.82,11.06-.53-3.67-2.83-11.3-12.82-11.06-13.13.32-14.87,15.03-10.29,22.47,4.59,7.44,6.96,9.81,11.55,14.56,4.32,4.47,9.48,9.5,11.39,12.58,0,0,.1.36.16.26.06.1.16-.26.16-.26,1.91-3.08,7.07-8.11,11.39-12.58,4.59-4.75,6.96-7.12,11.55-14.56,4.59-7.44,2.85-22.15-10.29-22.47Z" style="fill:#af0f07;"/><path d="m92.82,178.19c-9.99.24-12.29-7.39-12.82-11.06-.53,3.67-2.83,11.3-12.82,11.06-13.13-.32-14.87-15.03-10.29-22.47,4.59-7.44,6.96-9.81,11.55-14.56,4.32-4.47,9.48-9.5,11.39-12.58,0,0,.1-.36.16-.26.06-.1.16.26.16.26,1.91,3.08,7.07,8.11,11.39,12.58,4.59,4.75,6.96,7.12,11.55,14.56,4.59,7.44,2.85,22.15-10.29,22.47Z" style="fill:#af0f07;"/><text transform="translate(12.13 28.2)" style="fill:#af0f07; font-family:Cafe24Ssurround, &apos;Cafe24 Ssurround&apos;; font-size:25px;"><tspan x="0" y="0">2</tspan></text><text transform="translate(147.87 195.71) rotate(-180)" style="fill:#af0f07; font-family:Cafe24Ssurround, &apos;Cafe24 Ssurround&apos;; font-size:25px;"><tspan x="0" y="0">2</tspan></text></svg>