<?xml version="1.0" encoding="UTF-8"?><svg id="Objects" xmlns="http://www.w3.org/2000/svg" viewBox="0 0 160 223.91"><path d="m17.22.5h125.55c9.23,0,16.72,7.49,16.72,16.72v189.46c0,9.23-7.49,16.72-16.72,16.72H17.22c-9.23,0-16.72-7.49-16.72-16.72V17.22C.5,7.99,7.99.5,17.22.5Z" style="fill:#fff;"/><path d="m142.78,1c8.95,0,16.22,7.28,16.22,16.22v189.46c0,8.95-7.28,16.22-16.22,16.22H17.22c-8.95,0-16.22-7.28-16.22-16.22V17.22C1,8.28,8.28,1,17.22,1h125.55M142.78,0H17.22C7.71,0,0,7.71,0,17.22v189.46c0,9.51,7.71,17.22,17.22,17.22h125.55c9.51,0,17.22-7.71,17.22-17.22V17.22C160,7.71,152.29,0,142.78,0h0Z" style="fill:#a5a5a5;"/><path d="m117.41,43.99c-8.48-.2-10.43,6.27-10.88,9.38-.45-3.11-2.4-9.59-10.88-9.38-11.15.27-12.63,12.76-8.73,19.07,3.9,6.31,5.91,8.33,9.8,12.36,3.67,3.8,8.05,8.07,9.67,10.68,0,0,.09.31.13.22.05.08.13-.22.13-.22,1.62-2.62,6-6.89,9.67-10.68,3.9-4.03,5.91-6.04,9.81-12.36,3.9-6.31,2.42-18.8-8.73-19.07Z" style="fill:#af0f07;"/><path d="m64.35,43.99c-8.48-.2-10.43,6.27-10.88,9.38-.45-3.11-2.4-9.59-10.88-9.38-11.15.27-12.63,12.76-8.73,19.07,3.9,6.31,5.91,8.33,9.8,12.36,3.67,3.8,8.05,8.07,9.67,10.68,0,0,.09.31.13.22.05.08.13-.22.13-.22,1.62-2.62,6-6.89,9.67-10.68,3.9-4.03,5.91-6.04,9.81-12.36,3.9-6.31,2.42-18.8-8.73-19.07Z" style="fill:#af0f07;"/><path d="m117.41,179.92c-8.48.2-10.43-6.27-10.88-9.38-.45,3.11-2.4,9.59-10.88,9.38-11.15-.27-12.63-12.76-8.73-19.07,3.9-6.31,5.91-8.33,9.8-12.36,3.67-3.8,8.05-8.07,9.67-10.68,0,0,.09-.31.13-.22.05-.08.13.22.13.22,1.62,2.62,6,6.89,9.67,10.68,3.9,4.03,5.91,6.04,9.81,12.36,3.9,6.31,2.42,18.8-8.73,19.07Z" style="fill:#af0f07;"/><path d="m64.35,179.92c-8.48.2-10.43-6.27-10.88-9.38-.45,3.11-2.4,9.59-10.88,9.38-11.15-.27-12.63-12.76-8.73-19.07s5.91-8.33,9.8-12.36c3.67-3.8,8.05-8.07,9.67-10.68,0,0,.09-.31.13-.22.05-.08.13.22.13.22,1.62,2.62,6,6.89,9.67,10.68,3.9,4.03,5.91,6.04,9.81,12.36,3.9,6.31,2.42,18.8-8.73,19.07Z" style="fill:#af0f07;"/><text transform="translate(12.01 28.2)" style="fill:#af0f07; font-family:Cafe24Ssurround, &apos;Cafe24 Ssurround&apos;; font-size:25px;"><tspan x="0" y="0">4</tspan></text><text transform="translate(147.99 195.71) rotate(-180)" style="fill:#af0f07; font-family:Cafe24Ssurround, &apos;Cafe24 Ssurround&apos;; font-size:25px;"><tspan x="0" y="0">4</tspan></text></svg>