<?xml version="1.0" encoding="UTF-8"?><svg id="Objects" xmlns="http://www.w3.org/2000/svg" viewBox="0 0 160 223.91"><path d="m17.22.5h125.55c9.23,0,16.72,7.49,16.72,16.72v189.46c0,9.23-7.49,16.72-16.72,16.72H17.22c-9.23,0-16.72-7.49-16.72-16.72V17.22C.5,7.99,7.99.5,17.22.5Z" style="fill:#fff;"/><path d="m142.78,1c8.95,0,16.22,7.28,16.22,16.22v189.46c0,8.95-7.28,16.22-16.22,16.22H17.22c-8.95,0-16.22-7.28-16.22-16.22V17.22C1,8.28,8.28,1,17.22,1h125.55M142.78,0H17.22C7.71,0,0,7.71,0,17.22v189.46c0,9.51,7.71,17.22,17.22,17.22h125.55c9.51,0,17.22-7.71,17.22-17.22V17.22C160,7.71,152.29,0,142.78,0h0Z" style="fill:#a5a5a5;"/><path d="m90.43,36.24c-8.13-.2-10,6.01-10.43,9-.43-2.99-2.3-9.19-10.43-9-10.69.26-12.11,12.24-8.37,18.29,3.74,6.05,5.67,7.99,9.4,11.85,3.52,3.64,7.72,7.73,9.27,10.24,0,0,.08.29.13.21.05.08.13-.21.13-.21,1.55-2.51,5.76-6.6,9.27-10.24,3.74-3.86,5.67-5.8,9.4-11.85,3.74-6.05,2.32-18.03-8.37-18.29Z" style="fill:#af0f07;"/><path d="m90.43,93.33c-8.13-.2-10,6.01-10.43,9-.43-2.99-2.3-9.19-10.43-9-10.69.26-12.11,12.24-8.37,18.29s5.67,7.99,9.4,11.85c3.52,3.64,7.72,7.73,9.27,10.24,0,0,.08.29.13.21.05.08.13-.21.13-.21,1.55-2.51,5.76-6.6,9.27-10.24,3.74-3.86,5.67-5.8,9.4-11.85,3.74-6.05,2.32-18.03-8.37-18.29Z" style="fill:#af0f07;"/><path d="m90.98,187.67c-8.56.21-10.53-6.33-10.98-9.47-.45,3.14-2.43,9.68-10.98,9.47-11.26-.27-12.75-12.88-8.81-19.26,3.93-6.37,5.97-8.41,9.9-12.48,3.7-3.83,8.13-8.14,9.76-10.78,0,0,.09-.31.14-.23.05-.08.14.23.14.23,1.63,2.64,6.06,6.95,9.76,10.78,3.93,4.07,5.97,6.1,9.9,12.48,3.93,6.37,2.44,18.98-8.81,19.26Z" style="fill:#af0f07;"/><text transform="translate(11.72 28.2)" style="fill:#af0f07; font-family:Cafe24Ssurround, &apos;Cafe24 Ssurround&apos;; font-size:25px;"><tspan x="0" y="0">3</tspan></text><text transform="translate(148.28 195.71) rotate(-180)" style="fill:#af0f07; font-family:Cafe24Ssurround, &apos;Cafe24 Ssurround&apos;; font-size:25px;"><tspan x="0" y="0">3</tspan></text></svg>