<?xml version="1.0" encoding="UTF-8"?><svg id="Objects" xmlns="http://www.w3.org/2000/svg" viewBox="0 0 160 223.91"><path d="m17.22.5h125.55c9.23,0,16.72,7.49,16.72,16.72v189.46c0,9.23-7.49,16.72-16.72,16.72H17.22c-9.23,0-16.72-7.49-16.72-16.72V17.22C.5,7.99,7.99.5,17.22.5Z" style="fill:#fff;"/><path d="m142.78,1c8.95,0,16.22,7.28,16.22,16.22v189.46c0,8.95-7.28,16.22-16.22,16.22H17.22c-8.95,0-16.22-7.28-16.22-16.22V17.22C1,8.28,8.28,1,17.22,1h125.55M142.78,0H17.22C7.71,0,0,7.71,0,17.22v189.46c0,9.51,7.71,17.22,17.22,17.22h125.55c9.51,0,17.22-7.71,17.22-17.22V17.22C160,7.71,152.29,0,142.78,0h0Z" style="fill:#a5a5a5;"/><path d="m55.49,38.65c-4.49-.11-5.52,3.32-5.76,4.97-.24-1.65-1.27-5.08-5.76-4.97-5.9.14-6.69,6.76-4.62,10.1,2.06,3.34,3.13,4.41,5.19,6.55,1.94,2.01,4.26,4.27,5.12,5.66,0,0,.05.16.07.12.03.04.07-.12.07-.12.86-1.39,3.18-3.65,5.12-5.66,2.06-2.13,3.13-3.2,5.19-6.55,2.06-3.34,1.28-9.96-4.62-10.1Z" style="fill:#af0f07;"/><path d="m83.79,57.6c-4.49-.11-5.52,3.32-5.76,4.97-.24-1.65-1.27-5.08-5.76-4.97-5.9.14-6.69,6.76-4.62,10.1,2.06,3.34,3.13,4.41,5.19,6.55,1.94,2.01,4.26,4.27,5.12,5.66,0,0,.05.16.07.12.03.04.07-.12.07-.12.86-1.39,3.18-3.65,5.12-5.66,2.06-2.13,3.13-3.2,5.19-6.55,2.06-3.34,1.28-9.96-4.62-10.1Z" style="fill:#af0f07;"/><path d="m84.06,166.85c-4.49.11-5.52-3.32-5.76-4.97-.24,1.65-1.27,5.08-5.76,4.97-5.9-.14-6.69-6.76-4.62-10.1,2.06-3.34,3.13-4.41,5.19-6.55,1.94-2.01,4.26-4.27,5.12-5.66,0,0,.05-.16.07-.12.03-.04.07.12.07.12.86,1.39,3.18,3.65,5.12,5.66,2.06,2.13,3.13,3.2,5.19,6.55,2.06,3.34,1.28,9.96-4.62,10.1Z" style="fill:#af0f07;"/><path d="m55.49,80.04c-4.49-.11-5.52,3.32-5.76,4.97-.24-1.65-1.27-5.08-5.76-4.97-5.9.14-6.69,6.76-4.62,10.1,2.06,3.34,3.13,4.41,5.19,6.55,1.94,2.01,4.26,4.27,5.12,5.66,0,0,.05.16.07.12.03.04.07-.12.07-.12.86-1.39,3.18-3.65,5.12-5.66,2.06-2.13,3.13-3.2,5.19-6.55,2.06-3.34,1.28-9.96-4.62-10.1Z" style="fill:#af0f07;"/><path d="m55.49,185.26c-4.49.11-5.52-3.32-5.76-4.97-.24,1.65-1.27,5.08-5.76,4.97-5.9-.14-6.69-6.76-4.62-10.1,2.06-3.34,3.13-4.41,5.19-6.55,1.94-2.01,4.26-4.27,5.12-5.66,0,0,.05-.16.07-.12.03-.04.07.12.07.12.86,1.39,3.18,3.65,5.12,5.66,2.06,2.13,3.13,3.2,5.19,6.55,2.06,3.34,1.28,9.96-4.62,10.1Z" style="fill:#af0f07;"/><path d="m55.49,143.87c-4.49.11-5.52-3.32-5.76-4.97-.24,1.65-1.27,5.08-5.76,4.97-5.9-.14-6.69-6.76-4.62-10.1,2.06-3.34,3.13-4.41,5.19-6.55,1.94-2.01,4.26-4.27,5.12-5.66,0,0,.05-.16.07-.12.03-.04.07.12.07.12.86,1.39,3.18,3.65,5.12,5.66,2.06,2.13,3.13,3.2,5.19,6.55,2.06,3.34,1.28,9.96-4.62,10.1Z" style="fill:#af0f07;"/><path d="m116.03,38.65c-4.49-.11-5.52,3.32-5.76,4.97-.24-1.65-1.27-5.08-5.76-4.97-5.9.14-6.69,6.76-4.62,10.1,2.06,3.34,3.13,4.41,5.19,6.55,1.94,2.01,4.26,4.27,5.12,5.66,0,0,.05.16.07.12.03.04.07-.12.07-.12.86-1.39,3.18-3.65,5.12-5.66,2.06-2.13,3.13-3.2,5.19-6.55,2.06-3.34,1.28-9.96-4.62-10.1Z" style="fill:#af0f07;"/><path d="m116.03,80.04c-4.49-.11-5.52,3.32-5.76,4.97-.24-1.65-1.27-5.08-5.76-4.97-5.9.14-6.69,6.76-4.62,10.1,2.06,3.34,3.13,4.41,5.19,6.55,1.94,2.01,4.26,4.27,5.12,5.66,0,0,.05.16.07.12.03.04.07-.12.07-.12.86-1.39,3.18-3.65,5.12-5.66,2.06-2.13,3.13-3.2,5.19-6.55,2.06-3.34,1.28-9.96-4.62-10.1Z" style="fill:#af0f07;"/><path d="m116.03,185.26c-4.49.11-5.52-3.32-5.76-4.97-.24,1.65-1.27,5.08-5.76,4.97-5.9-.14-6.69-6.76-4.62-10.1,2.06-3.34,3.13-4.41,5.19-6.55,1.94-2.01,4.26-4.27,5.12-5.66,0,0,.05-.16.07-.12.03-.04.07.12.07.12.86,1.39,3.18,3.65,5.12,5.66,2.06,2.13,3.13,3.2,5.19,6.55,2.06,3.34,1.28,9.96-4.62,10.1Z" style="fill:#af0f07;"/><path d="m116.03,143.87c-4.49.11-5.52-3.32-5.76-4.97-.24,1.65-1.27,5.08-5.76,4.97-5.9-.14-6.69-6.76-4.62-10.1,2.06-3.34,3.13-4.41,5.19-6.55,1.94-2.01,4.26-4.27,5.12-5.66,0,0,.05-.16.07-.12.03-.04.07.12.07.12.86,1.39,3.18,3.65,5.12,5.66,2.06,2.13,3.13,3.2,5.19,6.55,2.06,3.34,1.28,9.96-4.62,10.1Z" style="fill:#af0f07;"/><text transform="translate(8.88 28.2)" style="fill:#af0f07; font-family:Cafe24Ssurround, &apos;Cafe24 Ssurround&apos;; font-size:25px;"><tspan x="0" y="0">10</tspan></text><text transform="translate(151.12 195.71) rotate(-180)" style="fill:#af0f07; font-family:Cafe24Ssurround, &apos;Cafe24 Ssurround&apos;; font-size:25px;"><tspan x="0" y="0">10</tspan></text></svg>