<?xml version="1.0" encoding="UTF-8"?><svg id="Objects" xmlns="http://www.w3.org/2000/svg" viewBox="0 0 160 223.91"><path d="m17.22.5h125.55c9.23,0,16.72,7.49,16.72,16.72v189.46c0,9.23-7.49,16.72-16.72,16.72H17.22c-9.23,0-16.72-7.49-16.72-16.72V17.22C.5,7.99,7.99.5,17.22.5Z" style="fill:#fff;"/><path d="m142.78,1c8.95,0,16.22,7.28,16.22,16.22v189.46c0,8.95-7.28,16.22-16.22,16.22H17.22c-8.95,0-16.22-7.28-16.22-16.22V17.22C1,8.28,8.28,1,17.22,1h125.55M142.78,0H17.22C7.71,0,0,7.71,0,17.22v189.46c0,9.51,7.71,17.22,17.22,17.22h125.55c9.51,0,17.22-7.71,17.22-17.22V17.22C160,7.71,152.29,0,142.78,0h0Z" style="fill:#a5a5a5;"/><text transform="translate(11.98 28.2)" style="font-family:Cafe24Ssurround, &apos;Cafe24 Ssurround&apos;; font-size:25px;"><tspan x="0" y="0">9</tspan></text><text transform="translate(148.02 195.71) rotate(-180)" style="font-family:Cafe24Ssurround, &apos;Cafe24 Ssurround&apos;; font-size:25px;"><tspan x="0" y="0">9</tspan></text><path d="m88.24,104.47c-3.11-3.4-6.73-6.71-8.25-8.45-1.14-1.31-1.94-2.3-2.27-2.71v-.21s-.03.04-.08.11c-.05-.07-.08-.11-.08-.11v.21c-.33.41-1.14,1.41-2.27,2.71-1.52,1.74-5.14,5.05-8.25,8.45-3.11,3.4-3.37,6.79-2.78,9.61.59,2.82,3.54,5.47,8.17,4.89,1.45-.18,2.52-.88,3.29-1.75-.52,3.99-2.67,6.06-2.67,6.06h8.98c-1.64-1.83-2.22-4.43-2.43-6.04.77.86,1.83,1.55,3.27,1.73,4.63.58,7.58-2.07,8.17-4.89.59-2.82.34-6.21-2.78-9.61Z" style="fill:#151515;"/><path d="m61.2,43.2c-3.11-3.4-6.73-6.71-8.25-8.45-1.14-1.31-1.94-2.3-2.27-2.71v-.21s-.03.04-.08.11c-.05-.07-.08-.11-.08-.11v.21c-.33.41-1.14,1.41-2.27,2.71-1.52,1.74-5.14,5.05-8.25,8.45-3.11,3.4-3.37,6.79-2.78,9.61s3.54,5.47,8.17,4.89c1.45-.18,2.52-.88,3.29-1.75-.52,3.99-2.67,6.06-2.67,6.06h8.98c-1.64-1.83-2.22-4.43-2.43-6.04.77.86,1.83,1.55,3.27,1.73,4.63.58,7.58-2.07,8.17-4.89.59-2.82.34-6.21-2.78-9.61Z" style="fill:#151515;"/><path d="m61.2,86.56c-3.11-3.4-6.73-6.71-8.25-8.45-1.14-1.31-1.94-2.3-2.27-2.71v-.21s-.03.04-.08.11c-.05-.07-.08-.11-.08-.11v.21c-.33.41-1.14,1.41-2.27,2.71-1.52,1.74-5.14,5.05-8.25,8.45s-3.37,6.79-2.78,9.61c.59,2.82,3.54,5.47,8.17,4.89,1.45-.18,2.52-.88,3.29-1.75-.52,3.99-2.67,6.06-2.67,6.06h8.98c-1.64-1.83-2.22-4.43-2.43-6.04.77.86,1.83,1.55,3.27,1.73,4.63.58,7.58-2.07,8.17-4.89.59-2.82.34-6.21-2.78-9.61Z" style="fill:#151515;"/><path d="m61.2,180.71c-3.11,3.4-6.73,6.71-8.25,8.45-1.14,1.3-1.94,2.3-2.27,2.71v.21s-.03-.04-.08-.11c-.05.07-.08.11-.08.11v-.21c-.33-.41-1.14-1.41-2.27-2.71-1.52-1.74-5.14-5.05-8.25-8.45s-3.37-6.79-2.78-9.61c.59-2.82,3.54-5.47,8.17-4.89,1.45.18,2.52.88,3.29,1.75-.52-3.99-2.67-6.06-2.67-6.06h8.98c-1.64,1.83-2.22,4.43-2.43,6.04.77-.86,1.83-1.55,3.27-1.73,4.63-.58,7.58,2.07,8.17,4.89.59,2.82.34,6.21-2.78,9.61Z" style="fill:#151515;"/><path d="m120.01,43.2c-3.11-3.4-6.73-6.71-8.25-8.45-1.14-1.31-1.94-2.3-2.27-2.71v-.21s-.03.04-.08.11c-.05-.07-.08-.11-.08-.11v.21c-.33.41-1.14,1.41-2.27,2.71-1.52,1.74-5.13,5.05-8.25,8.45-3.11,3.4-3.37,6.79-2.78,9.61.59,2.82,3.54,5.47,8.17,4.89,1.45-.18,2.52-.88,3.29-1.75-.52,3.99-2.67,6.06-2.67,6.06h8.98c-1.64-1.83-2.22-4.43-2.43-6.04.77.86,1.83,1.55,3.27,1.73,4.63.58,7.58-2.07,8.17-4.89.59-2.82.34-6.21-2.78-9.61Z" style="fill:#151515;"/><path d="m120.01,86.56c-3.11-3.4-6.73-6.71-8.25-8.45-1.14-1.31-1.94-2.3-2.27-2.71v-.21s-.03.04-.08.11c-.05-.07-.08-.11-.08-.11v.21c-.33.41-1.14,1.41-2.27,2.71-1.52,1.74-5.13,5.05-8.25,8.45-3.11,3.4-3.37,6.79-2.78,9.61.59,2.82,3.54,5.47,8.17,4.89,1.45-.18,2.52-.88,3.29-1.75-.52,3.99-2.67,6.06-2.67,6.06h8.98c-1.64-1.83-2.22-4.43-2.43-6.04.77.86,1.83,1.55,3.27,1.73,4.63.58,7.58-2.07,8.17-4.89.59-2.82.34-6.21-2.78-9.61Z" style="fill:#151515;"/><path d="m120.01,180.71c-3.11,3.4-6.73,6.71-8.25,8.45-1.14,1.3-1.94,2.3-2.27,2.71v.21s-.03-.04-.08-.11c-.05.07-.08.11-.08.11v-.21c-.33-.41-1.14-1.41-2.27-2.71-1.52-1.74-5.13-5.05-8.25-8.45-3.11-3.4-3.37-6.79-2.78-9.61.59-2.82,3.54-5.47,8.17-4.89,1.45.18,2.52.88,3.29,1.75-.52-3.99-2.67-6.06-2.67-6.06h8.98c-1.64,1.83-2.22,4.43-2.43,6.04.77-.86,1.83-1.55,3.27-1.73,4.63-.58,7.58,2.07,8.17,4.89.59,2.82.34,6.21-2.78,9.61Z" style="fill:#151515;"/><path d="m61.2,137.35c-3.11,3.4-6.73,6.71-8.25,8.45-1.14,1.31-1.94,2.3-2.27,2.71v.21s-.03-.04-.08-.11c-.05.07-.08.11-.08.11v-.21c-.33-.41-1.14-1.41-2.27-2.71-1.52-1.74-5.14-5.05-8.25-8.45s-3.37-6.79-2.78-9.61c.59-2.82,3.54-5.47,8.17-4.89,1.45.18,2.52.88,3.29,1.75-.52-3.99-2.67-6.06-2.67-6.06h8.98c-1.64,1.83-2.22,4.43-2.43,6.04.77-.86,1.83-1.55,3.27-1.73,4.63-.58,7.58,2.07,8.17,4.89.59,2.82.34,6.21-2.78,9.61Z" style="fill:#151515;"/><path d="m120.01,137.35c-3.11,3.4-6.73,6.71-8.25,8.45-1.14,1.31-1.94,2.3-2.27,2.71v.21s-.03-.04-.08-.11c-.05.07-.08.11-.08.11v-.21c-.33-.41-1.14-1.41-2.27-2.71-1.52-1.74-5.14-5.05-8.25-8.45s-3.37-6.79-2.78-9.61c.59-2.82,3.54-5.47,8.17-4.89,1.45.18,2.52.88,3.29,1.75-.52-3.99-2.67-6.06-2.67-6.06h8.98c-1.64,1.83-2.22,4.43-2.43,6.04.77-.86,1.83-1.55,3.27-1.73,4.63-.58,7.58,2.07,8.17,4.89.59,2.82.34,6.21-2.78,9.61Z" style="fill:#151515;"/></svg>