<?xml version="1.0" encoding="UTF-8"?><svg id="Objects" xmlns="http://www.w3.org/2000/svg" viewBox="0 0 160 223.91"><rect x=".5" y=".5" width="159" height="222.91" rx="16.72" ry="16.72" style="fill:#fff;"/><path d="m142.78,1c8.95,0,16.22,7.28,16.22,16.22v189.46c0,8.95-7.28,16.22-16.22,16.22H17.22c-8.95,0-16.22-7.28-16.22-16.22V17.22C1,8.28,8.28,1,17.22,1h125.55M142.78,0H17.22C7.71,0,0,7.71,0,17.22v189.46c0,9.51,7.71,17.22,17.22,17.22h125.55c9.51,0,17.22-7.71,17.22-17.22V17.22C160,7.71,152.29,0,142.78,0h0Z" style="fill:#a5a5a5;"/><text transform="translate(12.01 28.2)" style="font-family:Cafe24Ssurround, &apos;Cafe24 Ssurround&apos;; font-size:25px;"><tspan x="0" y="0">4</tspan></text><text transform="translate(147.99 195.71) rotate(-180)" style="font-family:Cafe24Ssurround, &apos;Cafe24 Ssurround&apos;; font-size:25px;"><tspan x="0" y="0">4</tspan></text><path d="m68.9,56.32c-4.76-5.19-10.28-10.25-12.6-12.9-1.74-1.99-2.96-3.51-3.47-4.14v-.32s-.05.06-.13.16c-.08-.1-.13-.16-.13-.16v.32c-.51.63-1.74,2.15-3.47,4.14-2.31,2.66-7.84,7.72-12.6,12.9-4.76,5.19-5.14,10.37-4.24,14.67.9,4.3,5.4,8.35,12.47,7.46,2.22-.28,3.84-1.34,5.02-2.67-.79,6.09-4.08,9.26-4.08,9.26h13.71c-2.5-2.8-3.39-6.76-3.71-9.22,1.18,1.31,2.79,2.36,4.99,2.63,7.07.89,11.57-3.16,12.47-7.46.9-4.3.51-9.49-4.24-14.67Z" style="fill:#151515;"/><path d="m123.49,56.32c-4.76-5.19-10.28-10.25-12.6-12.9-1.74-1.99-2.96-3.51-3.47-4.14v-.32s-.05.06-.13.16c-.08-.1-.13-.16-.13-.16v.32c-.51.63-1.74,2.15-3.47,4.14-2.31,2.66-7.84,7.72-12.6,12.9-4.76,5.19-5.14,10.37-4.24,14.67.9,4.3,5.4,8.35,12.47,7.46,2.22-.28,3.84-1.34,5.02-2.67-.79,6.09-4.08,9.26-4.08,9.26h13.71c-2.5-2.8-3.39-6.76-3.71-9.22,1.18,1.31,2.79,2.36,4.99,2.63,7.07.89,11.57-3.16,12.47-7.46.9-4.3.51-9.49-4.24-14.67Z" style="fill:#151515;"/><path d="m91.1,167.59c4.76,5.19,10.28,10.25,12.6,12.9,1.74,1.99,2.96,3.51,3.47,4.14v.32s.05-.06.13-.16c.08.1.13.16.13.16v-.32c.51-.63,1.74-2.15,3.47-4.14,2.31-2.66,7.84-7.72,12.6-12.9,4.76-5.19,5.14-10.37,4.24-14.67-.9-4.3-5.4-8.35-12.47-7.46-2.22.28-3.84,1.34-5.02,2.67.79-6.09,4.08-9.26,4.08-9.26h-13.71c2.5,2.8,3.39,6.76,3.71,9.22-1.18-1.31-2.79-2.36-4.99-2.63-7.07-.89-11.57,3.16-12.47,7.46-.9,4.3-.51,9.49,4.24,14.67Z" style="fill:#151515;"/><path d="m36.51,167.59c4.76,5.19,10.28,10.25,12.6,12.9,1.74,1.99,2.96,3.51,3.47,4.14v.32s.05-.06.13-.16c.08.1.13.16.13.16v-.32c.51-.63,1.74-2.15,3.47-4.14,2.31-2.66,7.84-7.72,12.6-12.9,4.76-5.19,5.14-10.37,4.24-14.67-.9-4.3-5.4-8.35-12.47-7.46-2.22.28-3.84,1.34-5.02,2.67.79-6.09,4.08-9.26,4.08-9.26h-13.71c2.5,2.8,3.39,6.76,3.71,9.22-1.18-1.31-2.79-2.36-4.99-2.63-7.07-.89-11.57,3.16-12.47,7.46-.9,4.3-.51,9.49,4.24,14.67Z" style="fill:#151515;"/></svg>