<?xml version="1.0" encoding="UTF-8"?><svg id="Objects" xmlns="http://www.w3.org/2000/svg" viewBox="0 0 160 223.91"><rect x=".5" y=".5" width="159" height="222.91" rx="16.72" ry="16.72" style="fill:#fff;"/><path d="m142.78,1c8.95,0,16.22,7.28,16.22,16.22v189.46c0,8.95-7.28,16.22-16.22,16.22H17.22c-8.95,0-16.22-7.28-16.22-16.22V17.22C1,8.28,8.28,1,17.22,1h125.55M142.78,0H17.22C7.71,0,0,7.71,0,17.22v189.46c0,9.51,7.71,17.22,17.22,17.22h125.55c9.51,0,17.22-7.71,17.22-17.22V17.22C160,7.71,152.29,0,142.78,0h0Z" style="fill:#a5a5a5;"/><text transform="translate(11.81 28.2)" style="font-family:Cafe24Ssurround, &apos;Cafe24 Ssurround&apos;; font-size:25px;"><tspan x="0" y="0">5</tspan></text><text transform="translate(148.19 195.71) rotate(-180)" style="font-family:Cafe24Ssurround, &apos;Cafe24 Ssurround&apos;; font-size:25px;"><tspan x="0" y="0">5</tspan></text><path d="m65.25,43c-3.68-4.01-7.95-7.92-9.73-9.97-1.34-1.54-2.29-2.71-2.68-3.2v-.25s-.04.04-.1.13c-.06-.08-.1-.13-.1-.13v.25c-.39.49-1.34,1.66-2.68,3.2-1.79,2.05-6.06,5.96-9.73,9.97-3.68,4.01-3.97,8.02-3.28,11.34.7,3.32,4.17,6.45,9.64,5.77,1.72-.21,2.97-1.04,3.88-2.06-.61,4.7-3.16,7.15-3.16,7.15h10.6c-1.93-2.16-2.62-5.22-2.87-7.13.91,1.01,2.16,1.82,3.86,2.04,5.46.68,8.94-2.44,9.64-5.77.7-3.32.4-7.33-3.28-11.34Z" style="fill:#151515;"/><path d="m65.25,180.91c-3.68,4.01-7.95,7.92-9.73,9.97-1.34,1.54-2.29,2.71-2.68,3.2v.25s-.04-.04-.1-.13c-.06.08-.1.13-.1.13v-.25c-.39-.49-1.34-1.66-2.68-3.2-1.79-2.05-6.06-5.96-9.73-9.97-3.68-4.01-3.97-8.02-3.28-11.34.7-3.32,4.17-6.45,9.64-5.77,1.72.21,2.97,1.04,3.88,2.06-.61-4.7-3.16-7.15-3.16-7.15h10.6c-1.93,2.16-2.62,5.22-2.87,7.13.91-1.01,2.16-1.82,3.86-2.04,5.46-.68,8.94,2.44,9.64,5.77.7,3.32.4,7.33-3.28,11.34Z" style="fill:#151515;"/><path d="m119.78,43c-3.68-4.01-7.95-7.92-9.73-9.97-1.34-1.54-2.29-2.71-2.68-3.2v-.25s-.04.04-.1.13c-.06-.08-.1-.13-.1-.13v.25c-.39.49-1.34,1.66-2.68,3.2-1.79,2.05-6.06,5.96-9.73,9.97-3.68,4.01-3.97,8.02-3.28,11.34.7,3.32,4.17,6.45,9.64,5.77,1.72-.21,2.97-1.04,3.88-2.06-.61,4.7-3.16,7.15-3.16,7.15h10.6c-1.93-2.16-2.62-5.22-2.87-7.13.91,1.01,2.16,1.82,3.86,2.04,5.46.68,8.94-2.44,9.64-5.77.7-3.32.4-7.33-3.28-11.34Z" style="fill:#151515;"/><path d="m119.78,180.91c-3.68,4.01-7.95,7.92-9.73,9.97-1.34,1.54-2.29,2.71-2.68,3.2v.25s-.04-.04-.1-.13c-.06.08-.1.13-.1.13v-.25c-.39-.49-1.34-1.66-2.68-3.2-1.79-2.05-6.06-5.96-9.73-9.97-3.68-4.01-3.97-8.02-3.28-11.34.7-3.32,4.17-6.45,9.64-5.77,1.72.21,2.97,1.04,3.88,2.06-.61-4.7-3.16-7.15-3.16-7.15h10.6c-1.93,2.16-2.62,5.22-2.87,7.13.91-1.01,2.16-1.82,3.86-2.04,5.46-.68,8.94,2.44,9.64,5.77.7,3.32.4,7.33-3.28,11.34Z" style="fill:#151515;"/><path d="m92.05,106.08c-3.68-4.01-7.95-7.92-9.73-9.97-1.34-1.54-2.29-2.71-2.68-3.2v-.25s-.04.04-.1.13c-.06-.08-.1-.13-.1-.13v.25c-.39.49-1.34,1.66-2.68,3.2-1.79,2.05-6.06,5.96-9.73,9.97-3.68,4.01-3.97,8.02-3.28,11.34.7,3.32,4.17,6.45,9.64,5.77,1.72-.21,2.97-1.04,3.88-2.06-.61,4.7-3.16,7.15-3.16,7.15h10.6c-1.93-2.16-2.62-5.22-2.87-7.13.91,1.01,2.16,1.82,3.86,2.04,5.46.68,8.94-2.44,9.64-5.77.7-3.32.4-7.33-3.28-11.34Z" style="fill:#151515;"/></svg>