<?xml version="1.0" encoding="UTF-8"?><svg id="Objects" xmlns="http://www.w3.org/2000/svg" viewBox="0 0 160 223.91"><rect x=".5" y=".5" width="159" height="222.91" rx="16.72" ry="16.72" style="fill:#fff;"/><path d="m142.78,1c8.95,0,16.22,7.28,16.22,16.22v189.46c0,8.95-7.28,16.22-16.22,16.22H17.22c-8.95,0-16.22-7.28-16.22-16.22V17.22C1,8.28,8.28,1,17.22,1h125.55M142.78,0H17.22C7.71,0,0,7.71,0,17.22v189.46c0,9.51,7.71,17.22,17.22,17.22h125.55c9.51,0,17.22-7.71,17.22-17.22V17.22C160,7.71,152.29,0,142.78,0h0Z" style="fill:#a5a5a5;"/><text transform="translate(11.72 28.2)" style="font-family:Cafe24Ssurround, &apos;Cafe24 Ssurround&apos;; font-size:25px;"><tspan x="0" y="0">3</tspan></text><text transform="translate(148.28 195.71) rotate(-180)" style="font-family:Cafe24Ssurround, &apos;Cafe24 Ssurround&apos;; font-size:25px;"><tspan x="0" y="0">3</tspan></text><path d="m95.89,50.11c-4.66-5.09-10.09-10.05-12.36-12.66-1.7-1.95-2.91-3.44-3.4-4.06v-.32s-.04.06-.13.16c-.08-.1-.13-.16-.13-.16v.32c-.5.62-1.7,2.11-3.4,4.06-2.27,2.61-7.69,7.57-12.36,12.66-4.66,5.09-5.04,10.17-4.16,14.39.88,4.22,5.3,8.19,12.23,7.32,2.18-.27,3.77-1.32,4.93-2.62-.78,5.97-4.01,9.08-4.01,9.08h13.45c-2.46-2.74-3.32-6.63-3.64-9.05,1.16,1.29,2.74,2.31,4.9,2.58,6.93.87,11.35-3.1,12.23-7.32.88-4.22.5-9.31-4.16-14.39Z" style="fill:#151515;"/><path d="m95.89,106.39c-4.66-5.09-10.09-10.05-12.36-12.66-1.7-1.95-2.91-3.44-3.4-4.06v-.32s-.04.06-.13.16c-.08-.1-.13-.16-.13-.16v.32c-.5.62-1.7,2.11-3.4,4.06-2.27,2.61-7.69,7.57-12.36,12.66-4.66,5.09-5.04,10.17-4.16,14.39.88,4.22,5.3,8.19,12.23,7.32,2.18-.27,3.77-1.32,4.93-2.62-.78,5.97-4.01,9.08-4.01,9.08h13.45c-2.46-2.74-3.32-6.63-3.64-9.05,1.16,1.29,2.74,2.31,4.9,2.58,6.93.87,11.35-3.1,12.23-7.32.88-4.22.5-9.31-4.16-14.39Z" style="fill:#151515;"/><path d="m64.11,173.8c4.66,5.09,10.09,10.05,12.36,12.66,1.7,1.95,2.91,3.44,3.4,4.06v.32s.04-.06.13-.16c.08.1.13.16.13.16v-.32c.5-.62,1.7-2.11,3.4-4.06,2.27-2.61,7.69-7.57,12.36-12.66,4.66-5.09,5.04-10.17,4.16-14.39-.88-4.22-5.3-8.19-12.23-7.32-2.18.27-3.77,1.32-4.93,2.62.78-5.97,4.01-9.08,4.01-9.08h-13.45c2.46,2.74,3.32,6.63,3.64,9.05-1.16-1.29-2.74-2.31-4.9-2.58-6.93-.87-11.35,3.1-12.23,7.32-.88,4.22-.5,9.31,4.16,14.39Z" style="fill:#151515;"/></svg>