<?xml version="1.0" encoding="UTF-8"?><svg id="Objects" xmlns="http://www.w3.org/2000/svg" viewBox="0 0 160 223.91"><rect x=".5" y=".5" width="159" height="222.91" rx="16.72" ry="16.72" style="fill:#fff;"/><path d="m142.78,1c8.95,0,16.22,7.28,16.22,16.22v189.46c0,8.95-7.28,16.22-16.22,16.22H17.22c-8.95,0-16.22-7.28-16.22-16.22V17.22C1,8.28,8.28,1,17.22,1h125.55M142.78,0H17.22C7.71,0,0,7.71,0,17.22v189.46c0,9.51,7.71,17.22,17.22,17.22h125.55c9.51,0,17.22-7.71,17.22-17.22V17.22C160,7.71,152.29,0,142.78,0h0Z" style="fill:#a5a5a5;"/><text transform="translate(11.91 28.2)" style="font-family:Cafe24Ssurround, &apos;Cafe24 Ssurround&apos;; font-size:25px;"><tspan x="0" y="0">A</tspan></text><text transform="translate(148.09 195.71) rotate(-180)" style="font-family:Cafe24Ssurround, &apos;Cafe24 Ssurround&apos;; font-size:25px;"><tspan x="0" y="0">A</tspan></text><path d="m99.84,105c-5.83-6.35-12.6-12.55-15.43-15.8-2.13-2.44-3.63-4.3-4.25-5.07v-.4s-.06.07-.16.2c-.1-.13-.16-.2-.16-.2v.4c-.62.77-2.13,2.63-4.25,5.07-2.83,3.25-9.6,9.45-15.43,15.8-5.83,6.35-6.3,12.71-5.2,17.97,1.1,5.27,6.61,10.23,15.27,9.14,2.72-.34,4.71-1.64,6.16-3.27-.97,7.46-5,11.34-5,11.34h16.79c-3.07-3.42-4.15-8.28-4.54-11.3,1.45,1.61,3.42,2.89,6.12,3.23,8.66,1.08,14.17-3.87,15.27-9.14,1.1-5.27.63-11.62-5.2-17.97Z" style="fill:#151515;"/></svg>