<?xml version="1.0" encoding="UTF-8"?><svg id="Objects" xmlns="http://www.w3.org/2000/svg" viewBox="0 0 160 223.91"><path d="m17.22.5h125.55c9.23,0,16.72,7.49,16.72,16.72v189.46c0,9.23-7.49,16.72-16.72,16.72H17.22c-9.23,0-16.72-7.49-16.72-16.72V17.22C.5,7.99,7.99.5,17.22.5Z" style="fill:#fff;"/><path d="m142.78,1c8.95,0,16.22,7.28,16.22,16.22v189.46c0,8.95-7.28,16.22-16.22,16.22H17.22c-8.95,0-16.22-7.28-16.22-16.22V17.22C1,8.28,8.28,1,17.22,1h125.55M142.78,0H17.22C7.71,0,0,7.71,0,17.22v189.46c0,9.51,7.71,17.22,17.22,17.22h125.55c9.51,0,17.22-7.71,17.22-17.22V17.22C160,7.71,152.29,0,142.78,0h0Z" style="fill:#a5a5a5;"/><text transform="translate(11.94 28.2)" style="font-family:Cafe24Ssurround, &apos;Cafe24 Ssurround&apos;; font-size:25px;"><tspan x="0" y="0">8</tspan></text><text transform="translate(148.06 195.71) rotate(-180)" style="font-family:Cafe24Ssurround, &apos;Cafe24 Ssurround&apos;; font-size:25px;"><tspan x="0" y="0">8</tspan></text><path d="m90.34,76.23c-3.15-3.44-6.81-6.79-8.35-8.55-1.15-1.32-1.96-2.32-2.3-2.74v-.21s-.03.04-.09.11c-.06-.07-.09-.11-.09-.11v.21c-.34.42-1.15,1.42-2.3,2.74-1.53,1.76-5.2,5.11-8.35,8.55-3.15,3.44-3.41,6.87-2.81,9.72.6,2.85,3.58,5.53,8.26,4.95,1.47-.18,2.55-.89,3.33-1.77-.53,4.03-2.71,6.13-2.71,6.13h9.09c-1.66-1.85-2.25-4.48-2.46-6.11.78.87,1.85,1.56,3.31,1.75,4.68.59,7.67-2.1,8.26-4.95.6-2.85.34-6.29-2.81-9.72Z" style="fill:#151515;"/><path d="m64.98,43.61c-3.15-3.44-6.81-6.79-8.35-8.55-1.15-1.32-1.96-2.32-2.3-2.74v-.21s-.03.04-.09.11c-.06-.07-.09-.11-.09-.11v.21c-.34.42-1.15,1.42-2.3,2.74-1.53,1.76-5.2,5.11-8.35,8.55-3.15,3.44-3.41,6.87-2.81,9.72.6,2.85,3.58,5.53,8.26,4.95,1.47-.18,2.55-.89,3.33-1.77-.53,4.03-2.71,6.13-2.71,6.13h9.09c-1.66-1.85-2.25-4.48-2.46-6.11.78.87,1.85,1.56,3.31,1.75,4.68.59,7.67-2.1,8.26-4.95.6-2.85.34-6.29-2.81-9.72Z" style="fill:#151515;"/><path d="m64.98,109.27c-3.15-3.44-6.81-6.79-8.35-8.55-1.15-1.32-1.96-2.32-2.3-2.74v-.21s-.03.04-.09.11c-.06-.07-.09-.11-.09-.11v.21c-.34.42-1.15,1.42-2.3,2.74-1.53,1.76-5.2,5.11-8.35,8.55-3.15,3.44-3.41,6.87-2.81,9.72.6,2.85,3.58,5.53,8.26,4.95,1.47-.18,2.55-.89,3.33-1.77-.53,4.03-2.71,6.13-2.71,6.13h9.09c-1.66-1.85-2.25-4.48-2.46-6.11.78.87,1.85,1.56,3.31,1.75,4.68.59,7.67-2.1,8.26-4.95.6-2.85.34-6.29-2.81-9.72Z" style="fill:#151515;"/><path d="m64.98,180.31c-3.15,3.44-6.81,6.79-8.35,8.55-1.15,1.32-1.96,2.32-2.3,2.74v.21s-.03-.04-.09-.11c-.05.07-.09.11-.09.11v-.21c-.34-.42-1.15-1.42-2.3-2.74-1.53-1.76-5.2-5.11-8.35-8.55-3.15-3.44-3.41-6.87-2.81-9.72s3.58-5.53,8.26-4.95c1.47.18,2.55.89,3.33,1.77-.53-4.03-2.71-6.13-2.71-6.13h9.09c-1.66,1.85-2.25,4.48-2.46,6.11.78-.87,1.85-1.56,3.31-1.75,4.68-.59,7.67,2.1,8.26,4.95.6,2.85.34,6.29-2.81,9.72Z" style="fill:#151515;"/><path d="m116.49,43.61c-3.15-3.44-6.81-6.79-8.35-8.55-1.15-1.32-1.96-2.32-2.3-2.74v-.21s-.03.04-.09.11c-.06-.07-.09-.11-.09-.11v.21c-.34.42-1.15,1.42-2.3,2.74-1.53,1.76-5.2,5.11-8.35,8.55s-3.41,6.87-2.81,9.72c.6,2.85,3.58,5.53,8.26,4.95,1.47-.18,2.55-.89,3.33-1.77-.53,4.03-2.71,6.13-2.71,6.13h9.09c-1.66-1.85-2.25-4.48-2.46-6.11.78.87,1.85,1.56,3.31,1.75,4.68.59,7.67-2.1,8.26-4.95.6-2.85.34-6.29-2.81-9.72Z" style="fill:#151515;"/><path d="m116.49,109.27c-3.15-3.44-6.81-6.79-8.35-8.55-1.15-1.32-1.96-2.32-2.3-2.74v-.21s-.03.04-.09.11c-.06-.07-.09-.11-.09-.11v.21c-.34.42-1.15,1.42-2.3,2.74-1.53,1.76-5.2,5.11-8.35,8.55-3.15,3.44-3.41,6.87-2.81,9.72.6,2.85,3.58,5.53,8.26,4.95,1.47-.18,2.55-.89,3.33-1.77-.53,4.03-2.71,6.13-2.71,6.13h9.09c-1.66-1.85-2.25-4.48-2.46-6.11.78.87,1.85,1.56,3.31,1.75,4.68.59,7.67-2.1,8.26-4.95.6-2.85.34-6.29-2.81-9.72Z" style="fill:#151515;"/><path d="m116.49,180.31c-3.15,3.44-6.81,6.79-8.35,8.55-1.15,1.32-1.96,2.32-2.3,2.74v.21s-.03-.04-.09-.11c-.05.07-.09.11-.09.11v-.21c-.34-.42-1.15-1.42-2.3-2.74-1.53-1.76-5.2-5.11-8.35-8.55-3.15-3.44-3.41-6.87-2.81-9.72.6-2.85,3.58-5.53,8.26-4.95,1.47.18,2.55.89,3.33,1.77-.53-4.03-2.71-6.13-2.71-6.13h9.09c-1.66,1.85-2.25,4.48-2.46,6.11.78-.87,1.85-1.56,3.31-1.75,4.68-.59,7.67,2.1,8.26,4.95.6,2.85.34,6.29-2.81,9.72Z" style="fill:#151515;"/><path d="m90.34,149.54c-3.15,3.44-6.81,6.79-8.35,8.55-1.15,1.32-1.96,2.32-2.3,2.74v.21s-.03-.04-.09-.11c-.06.07-.09.11-.09.11v-.21c-.34-.42-1.15-1.42-2.3-2.74-1.53-1.76-5.2-5.11-8.35-8.55-3.15-3.44-3.41-6.87-2.81-9.72.6-2.85,3.58-5.53,8.26-4.95,1.47.18,2.55.89,3.33,1.77-.53-4.03-2.71-6.13-2.71-6.13h9.09c-1.66,1.85-2.25,4.48-2.46,6.11.78-.87,1.85-1.56,3.31-1.75,4.68-.59,7.67,2.1,8.26,4.95.6,2.85.34,6.29-2.81,9.72Z" style="fill:#151515;"/></svg>