<?xml version="1.0" encoding="UTF-8"?><svg id="_레이어_1" xmlns="http://www.w3.org/2000/svg" xmlns:xlink="http://www.w3.org/1999/xlink" viewBox="0 0 539.47 453.27"><defs><linearGradient id="_무제_그라디언트_11" x1="323.89" y1="113.58" x2="514.51" y2="113.58" gradientUnits="userSpaceOnUse"><stop offset="0" stop-color="#fff"/><stop offset="1" stop-color="#fff" stop-opacity="0"/></linearGradient><linearGradient id="_무제_그라디언트_11-2" x1="344.83" y1="113.58" x2="535.44" y2="113.58" gradientTransform="translate(560.41) rotate(-180) scale(1 -1)" xlink:href="#_무제_그라디언트_11"/><linearGradient id="_무제_그라디언트_11-3" x1="237.59" y1="110.98" x2="173.25" y2="274.89" xlink:href="#_무제_그라디언트_11"/></defs><path d="m307.91,90.45s16.09-31.15,88.09-44.94c0,0,33.11-3.74,85.53-37.79,52.43-34.04,40.85,55.49,40.85,55.49,0,0,29.62-5.11,10.89,54.81,0,0-17.36,46.64-78.98,84.43-61.62,37.79-146.38-112-146.38-112Z" style="fill:#2cffc9;"/><path d="m323.89,111.97s17.02-38.81,69.79-47.66c52.77-8.85,71.15-26.55,71.15-26.55,0,0,45.62-28.94,35.74,37.1,0,0,24.17-3.41,8.85,39.49-15.32,42.89-90.22,81.36-90.22,81.36l-95.31-83.74Z" style="fill:url(#_무제_그라디언트_11);"/><path d="m372.18,138.61s32.43-1.02,55.66-11.23,61.28-26.55,61.28-26.55c0,0-55.4,66.64-77.11,68.68-21.7,2.04-39.83-30.89-39.83-30.89Z" style="fill:#02aa74;"/><path d="m231.57,90.45s-16.09-31.15-88.09-44.94c0,0-33.11-3.74-85.53-37.79C5.52-26.32,17.1,63.21,17.1,63.21c0,0-29.62-5.11-10.89,54.81,0,0,17.36,46.64,78.98,84.43,61.62,37.79,146.38-112,146.38-112Z" style="fill:#2cffc9;"/><path d="m215.58,111.97s-17.02-38.81-69.79-47.66c-52.77-8.85-71.15-26.55-71.15-26.55,0,0-45.62-28.94-35.74,37.1,0,0-24.17-3.41-8.85,39.49,15.32,42.89,90.22,81.36,90.22,81.36l95.31-83.74Z" style="fill:url(#_무제_그라디언트_11-2);"/><path d="m167.3,138.61s-32.43-1.02-55.66-11.23c-23.23-10.21-61.28-26.55-61.28-26.55,0,0,55.4,66.64,77.11,68.68s39.83-30.89,39.83-30.89Z" style="fill:#02aa74;"/><path d="m253.63,71.9l-174.6,126.73c-9.62,6.98-13.65,19.37-9.97,30.68l66.68,205.02c3.67,11.3,14.2,18.94,26.08,18.94h215.84c11.88,0,22.4-7.65,26.08-18.94l66.68-205.02c3.68-11.31-.35-23.69-9.97-30.68l-174.6-126.73c-9.61-6.97-22.61-6.97-32.22,0Z" style="fill:#2cffc9;"/><path d="m281.09,160.15l34.04,49.42c1.79,2.59,4.41,4.5,7.42,5.39l57.52,17.1c9.26,2.75,12.89,13.93,7.02,21.59l-36.49,47.65c-1.91,2.5-2.92,5.58-2.84,8.73l1.51,59.99c.24,9.66-9.26,16.56-18.37,13.35l-56.59-19.98c-2.97-1.05-6.21-1.05-9.18,0l-56.59,19.98c-9.11,3.21-18.61-3.69-18.37-13.35l1.51-59.99c.08-3.15-.92-6.23-2.84-8.73l-36.49-47.65c-5.87-7.67-2.24-18.84,7.02-21.59l57.52-17.1c3.02-.9,5.64-2.8,7.42-5.39l34.04-49.42c5.48-7.95,17.23-7.95,22.7,0Z" style="fill:#02aa74;"/><path d="m271.13,262.25l-5.26-151.14c-.18-5.31-6.21-8.27-10.53-5.18l-150.45,107.84c-4.54,3.26-3.29,10.32,2.09,11.82l155.66,43.34c4.36,1.21,8.64-2.16,8.48-6.68Z" style="fill:url(#_무제_그라디언트_11-3);"/></svg>