<?xml version="1.0" encoding="UTF-8"?><svg id="Objects" xmlns="http://www.w3.org/2000/svg" viewBox="0 0 160 223.91"><path d="m17.22.5h125.55c9.23,0,16.72,7.49,16.72,16.72v189.46c0,9.23-7.49,16.72-16.72,16.72H17.22c-9.23,0-16.72-7.49-16.72-16.72V17.22C.5,7.99,7.99.5,17.22.5Z" style="fill:#fff;"/><path d="m142.78,1c8.95,0,16.22,7.28,16.22,16.22v189.46c0,8.95-7.28,16.22-16.22,16.22H17.22c-8.95,0-16.22-7.28-16.22-16.22V17.22C1,8.28,8.28,1,17.22,1h125.55M142.78,0H17.22C7.71,0,0,7.71,0,17.22v189.46c0,9.51,7.71,17.22,17.22,17.22h125.55c9.51,0,17.22-7.71,17.22-17.22V17.22C160,7.71,152.29,0,142.78,0h0Z" style="fill:#a5a5a5;"/><text transform="translate(12.19 28.2)" style="fill:#af0f07; font-family:Cafe24Ssurround, &apos;Cafe24 Ssurround&apos;; font-size:25px;"><tspan x="0" y="0">7</tspan></text><text transform="translate(147.81 195.71) rotate(-180)" style="fill:#af0f07; font-family:Cafe24Ssurround, &apos;Cafe24 Ssurround&apos;; font-size:25px;"><tspan x="0" y="0">7</tspan></text><polygon points="79.83 67.94 66.53 84.09 79.83 100.5 93.47 84.22 79.83 67.94" style="fill:#af0f07;"/><polygon points="47.5 37.85 34.21 54 47.5 70.4 61.14 54.12 47.5 37.85" style="fill:#af0f07;"/><polygon points="112.15 37.85 98.86 54 112.15 70.4 125.79 54.12 112.15 37.85" style="fill:#af0f07;"/><polygon points="47.5 153.51 34.21 169.66 47.5 186.06 61.14 169.79 47.5 153.51" style="fill:#af0f07;"/><polygon points="112.15 153.51 98.86 169.66 112.15 186.06 125.79 169.79 112.15 153.51" style="fill:#af0f07;"/><polygon points="47.5 95.68 34.21 111.83 47.5 128.23 61.14 111.96 47.5 95.68" style="fill:#af0f07;"/><polygon points="112.15 95.68 98.86 111.83 112.15 128.23 125.79 111.96 112.15 95.68" style="fill:#af0f07;"/></svg>