<?xml version="1.0" encoding="UTF-8"?><svg id="Objects" xmlns="http://www.w3.org/2000/svg" viewBox="0 0 160 223.91"><path d="m17.22.5h125.55c9.23,0,16.72,7.49,16.72,16.72v189.46c0,9.23-7.49,16.72-16.72,16.72H17.22c-9.23,0-16.72-7.49-16.72-16.72V17.22C.5,7.99,7.99.5,17.22.5Z" style="fill:#fff;"/><path d="m142.78,1c8.95,0,16.22,7.28,16.22,16.22v189.46c0,8.95-7.28,16.22-16.22,16.22H17.22c-8.95,0-16.22-7.28-16.22-16.22V17.22C1,8.28,8.28,1,17.22,1h125.55M142.78,0H17.22C7.71,0,0,7.71,0,17.22v189.46c0,9.51,7.71,17.22,17.22,17.22h125.55c9.51,0,17.22-7.71,17.22-17.22V17.22C160,7.71,152.29,0,142.78,0h0Z" style="fill:#a5a5a5;"/><text transform="translate(12.5 28.2)" style="fill:#af0f07; font-family:Cafe24Ssurround, &apos;Cafe24 Ssurround&apos;; font-size:25px;"><tspan x="0" y="0">8</tspan></text><text transform="translate(148.63 195.71) rotate(-180)" style="fill:#af0f07; font-family:Cafe24Ssurround, &apos;Cafe24 Ssurround&apos;; font-size:25px;"><tspan x="0" y="0">8</tspan></text><polygon points="80.39 67.94 67.1 84.09 80.39 100.5 94.03 84.22 80.39 67.94" style="fill:#af0f07;"/><polygon points="80.39 121.78 67.1 137.93 80.39 154.33 94.03 138.06 80.39 121.78" style="fill:#af0f07;"/><polygon points="48.06 37.85 34.77 53.99 48.06 70.4 61.7 54.12 48.06 37.85" style="fill:#af0f07;"/><polygon points="112.72 37.85 99.43 53.99 112.72 70.4 126.36 54.12 112.72 37.85" style="fill:#af0f07;"/><polygon points="48.06 153.51 34.77 169.66 48.06 186.06 61.7 169.79 48.06 153.51" style="fill:#af0f07;"/><polygon points="112.72 153.51 99.43 169.66 112.72 186.06 126.36 169.79 112.72 153.51" style="fill:#af0f07;"/><polygon points="48.06 95.68 34.77 111.83 48.06 128.23 61.7 111.95 48.06 95.68" style="fill:#af0f07;"/><polygon points="112.72 95.68 99.43 111.83 112.72 128.23 126.36 111.95 112.72 95.68" style="fill:#af0f07;"/></svg>