<?xml version="1.0" encoding="UTF-8"?><svg id="Objects" xmlns="http://www.w3.org/2000/svg" viewBox="0 0 160 223.91"><path d="m17.22.5h125.55c9.23,0,16.72,7.49,16.72,16.72v189.46c0,9.23-7.49,16.72-16.72,16.72H17.22c-9.23,0-16.72-7.49-16.72-16.72V17.22C.5,7.99,7.99.5,17.22.5Z" style="fill:#fff;"/><path d="m142.78,1c8.95,0,16.22,7.28,16.22,16.22v189.46c0,8.95-7.28,16.22-16.22,16.22H17.22c-8.95,0-16.22-7.28-16.22-16.22V17.22C1,8.28,8.28,1,17.22,1h125.55M142.78,0H17.22C7.71,0,0,7.71,0,17.22v189.46c0,9.51,7.71,17.22,17.22,17.22h125.55c9.51,0,17.22-7.71,17.22-17.22V17.22C160,7.71,152.29,0,142.78,0h0Z" style="fill:#a5a5a5;"/><text transform="translate(12.01 28.2)" style="fill:#af0f07; font-family:Cafe24Ssurround, &apos;Cafe24 Ssurround&apos;; font-size:25px;"><tspan x="0" y="0">4</tspan></text><text transform="translate(147.99 195.71) rotate(-180)" style="fill:#af0f07; font-family:Cafe24Ssurround, &apos;Cafe24 Ssurround&apos;; font-size:25px;"><tspan x="0" y="0">4</tspan></text><polygon points="53.05 35.32 31.12 61.96 53.05 89.03 75.56 62.18 53.05 35.32" style="fill:#af0f07;"/><polygon points="106.38 35.32 84.44 61.96 106.38 89.03 128.88 62.18 106.38 35.32" style="fill:#af0f07;"/><polygon points="53.05 134.87 31.12 161.52 53.05 188.59 75.56 161.73 53.05 134.87" style="fill:#af0f07;"/><polygon points="106.38 134.87 84.44 161.52 106.38 188.59 128.88 161.73 106.38 134.87" style="fill:#af0f07;"/></svg>