<?xml version="1.0" encoding="UTF-8"?><svg id="Objects" xmlns="http://www.w3.org/2000/svg" viewBox="0 0 160 223.91"><path d="m17.22.5h125.55c9.23,0,16.72,7.49,16.72,16.72v189.46c0,9.23-7.49,16.72-16.72,16.72H17.22c-9.23,0-16.72-7.49-16.72-16.72V17.22C.5,7.99,7.99.5,17.22.5Z" style="fill:#fff;"/><path d="m142.78,1c8.95,0,16.22,7.28,16.22,16.22v189.46c0,8.95-7.28,16.22-16.22,16.22H17.22c-8.95,0-16.22-7.28-16.22-16.22V17.22C1,8.28,8.28,1,17.22,1h125.55M142.78,0H17.22C7.71,0,0,7.71,0,17.22v189.46c0,9.51,7.71,17.22,17.22,17.22h125.55c9.51,0,17.22-7.71,17.22-17.22V17.22C160,7.71,152.29,0,142.78,0h0Z" style="fill:#a5a5a5;"/><text transform="translate(11.98 28.2)" style="fill:#af0f07; font-family:Cafe24Ssurround, &apos;Cafe24 Ssurround&apos;; font-size:25px;"><tspan x="0" y="0">9</tspan></text><text transform="translate(148.02 195.71) rotate(-180)" style="fill:#af0f07; font-family:Cafe24Ssurround, &apos;Cafe24 Ssurround&apos;; font-size:25px;"><tspan x="0" y="0">9</tspan></text><polygon points="50.39 34.49 39.08 48.23 50.39 62.19 61.99 48.34 50.39 34.49" style="fill:#af0f07;"/><polygon points="79.96 99.94 68.65 113.67 79.96 127.63 91.56 113.78 79.96 99.94" style="fill:#af0f07;"/><polygon points="50.39 76.9 39.08 90.64 50.39 104.59 61.99 90.75 50.39 76.9" style="fill:#af0f07;"/><polygon points="50.39 119.31 39.08 133.05 50.39 147 61.99 133.16 50.39 119.31" style="fill:#af0f07;"/><polygon points="50.39 161.72 39.08 175.46 50.39 189.41 61.99 175.57 50.39 161.72" style="fill:#af0f07;"/><polygon points="109.32 34.49 98.01 48.23 109.32 62.19 120.92 48.34 109.32 34.49" style="fill:#af0f07;"/><polygon points="109.32 76.9 98.01 90.64 109.32 104.59 120.92 90.75 109.32 76.9" style="fill:#af0f07;"/><polygon points="109.32 119.31 98.01 133.05 109.32 147 120.92 133.16 109.32 119.31" style="fill:#af0f07;"/><polygon points="109.32 161.72 98.01 175.46 109.32 189.41 120.92 175.57 109.32 161.72" style="fill:#af0f07;"/></svg>