<?xml version="1.0" encoding="UTF-8"?><svg id="Objects" xmlns="http://www.w3.org/2000/svg" viewBox="0 0 160 223.91"><path d="m17.22.5h125.55c9.23,0,16.72,7.49,16.72,16.72v189.46c0,9.23-7.49,16.72-16.72,16.72H17.22c-9.23,0-16.72-7.49-16.72-16.72V17.22C.5,7.99,7.99.5,17.22.5Z" style="fill:#fff;"/><path d="m142.78,1c8.95,0,16.22,7.28,16.22,16.22v189.46c0,8.95-7.28,16.22-16.22,16.22H17.22c-8.95,0-16.22-7.28-16.22-16.22V17.22C1,8.28,8.28,1,17.22,1h125.55M142.78,0H17.22C7.71,0,0,7.71,0,17.22v189.46c0,9.51,7.71,17.22,17.22,17.22h125.55c9.51,0,17.22-7.71,17.22-17.22V17.22C160,7.71,152.29,0,142.78,0h0Z" style="fill:#a5a5a5;"/><text transform="translate(8.88 28.2)" style="fill:#af0f07; font-family:Cafe24Ssurround, &apos;Cafe24 Ssurround&apos;; font-size:25px;"><tspan x="0" y="0">10</tspan></text><text transform="translate(151.12 195.71) rotate(-180)" style="fill:#af0f07; font-family:Cafe24Ssurround, &apos;Cafe24 Ssurround&apos;; font-size:25px;"><tspan x="0" y="0">10</tspan></text><polygon points="52.42 34.49 41.11 48.23 52.42 62.18 64.02 48.34 52.42 34.49" style="fill:#af0f07;"/><polygon points="81.99 57.49 70.68 71.23 81.99 85.18 93.59 71.34 81.99 57.49" style="fill:#af0f07;"/><polygon points="81.55 139.63 70.24 153.36 81.55 167.32 93.15 153.47 81.55 139.63" style="fill:#af0f07;"/><polygon points="52.42 76.9 41.11 90.64 52.42 104.59 64.02 90.75 52.42 76.9" style="fill:#af0f07;"/><polygon points="52.42 119.31 41.11 133.05 52.42 147 64.02 133.16 52.42 119.31" style="fill:#af0f07;"/><polygon points="52.42 161.72 41.11 175.46 52.42 189.41 64.02 175.57 52.42 161.72" style="fill:#af0f07;"/><polygon points="109.78 34.49 98.47 48.23 109.78 62.18 121.38 48.34 109.78 34.49" style="fill:#af0f07;"/><polygon points="109.78 76.9 98.47 90.64 109.78 104.59 121.38 90.75 109.78 76.9" style="fill:#af0f07;"/><polygon points="109.78 119.31 98.47 133.05 109.78 147 121.38 133.16 109.78 119.31" style="fill:#af0f07;"/><polygon points="109.78 161.72 98.47 175.46 109.78 189.41 121.38 175.57 109.78 161.72" style="fill:#af0f07;"/></svg>