<?xml version="1.0" encoding="UTF-8"?><svg id="Objects" xmlns="http://www.w3.org/2000/svg" viewBox="0 0 160 223.91"><rect x=".5" y=".5" width="159" height="222.91" rx="16.72" ry="16.72" style="fill:#fff;"/><path d="m142.78,1c8.95,0,16.22,7.28,16.22,16.22v189.46c0,8.95-7.28,16.22-16.22,16.22H17.22c-8.95,0-16.22-7.28-16.22-16.22V17.22C1,8.28,8.28,1,17.22,1h125.55M142.78,0H17.22C7.71,0,0,7.71,0,17.22v189.46c0,9.51,7.71,17.22,17.22,17.22h125.55c9.51,0,17.22-7.71,17.22-17.22V17.22C160,7.71,152.29,0,142.78,0h0Z" style="fill:#a5a5a5;"/><path d="m66.93,54.54c-3.35-3.66-8.5-1.49-8.5-1.49,1.44-1.54,2.4-2.76,2.22-5.28,0-.09,0-.17,0-.26,0-4.01-3.25-7.26-7.26-7.26s-7.26,3.25-7.26,7.26c0,.5.05,1,.15,1.47.17,1.74,1.03,2.8,2.21,4.07,0,0-5.15-2.17-8.5,1.49-3.35,3.66-1.67,8-.62,9.43,1.05,1.43,2.64,3.82,6.36,3.55,3.29-.24,3.78-.81,6.05-2.62-.27,4.98-3.29,8.37-3.29,8.37h9.93c-1.82-1.92-3.44-6.32-3.23-8.33,2.22,1.77,2.72,2.33,5.99,2.57,3.72.28,5.3-2.12,6.36-3.55,1.05-1.43,2.73-5.77-.62-9.43Z" style="fill:#151515;"/><path d="m119.99,54.54c-3.35-3.66-8.5-1.49-8.5-1.49,1.44-1.54,2.4-2.76,2.22-5.28,0-.09,0-.17,0-.26,0-4.01-3.25-7.26-7.26-7.26s-7.26,3.25-7.26,7.26c0,.5.05,1,.15,1.47.17,1.74,1.03,2.8,2.21,4.07,0,0-5.15-2.17-8.5,1.49-3.35,3.66-1.67,8-.62,9.43,1.05,1.43,2.64,3.82,6.36,3.55,3.29-.24,3.78-.81,6.05-2.62-.27,4.98-3.29,8.37-3.29,8.37h9.93c-1.82-1.92-3.44-6.32-3.23-8.33,2.22,1.77,2.72,2.33,5.99,2.57,3.72.28,5.3-2.12,6.36-3.55s2.73-5.77-.62-9.43Z" style="fill:#151515;"/><path d="m91.77,105.19c-3.35-3.66-8.5-1.49-8.5-1.49,1.44-1.54,2.4-2.76,2.22-5.28,0-.09,0-.17,0-.26,0-4.01-3.25-7.26-7.26-7.26s-7.26,3.25-7.26,7.26c0,.5.05,1,.15,1.47.17,1.74,1.03,2.8,2.21,4.07,0,0-5.15-2.17-8.5,1.49-3.35,3.66-1.67,8-.62,9.43,1.05,1.43,2.64,3.82,6.36,3.55,3.29-.24,3.78-.81,6.05-2.62-.27,4.98-3.29,8.37-3.29,8.37h9.93c-1.82-1.92-3.44-6.32-3.23-8.33,2.22,1.77,2.72,2.33,5.99,2.57,3.72.28,5.3-2.12,6.36-3.55s2.73-5.77-.62-9.43Z" style="fill:#151515;"/><path d="m66.93,169.37c-3.35,3.66-8.5,1.49-8.5,1.49,1.44,1.54,2.4,2.76,2.22,5.28,0,.09,0,.17,0,.26,0,4.01-3.25,7.26-7.26,7.26s-7.26-3.25-7.26-7.26c0-.5.05-1,.15-1.47.17-1.74,1.03-2.8,2.21-4.07,0,0-5.15,2.17-8.5-1.49-3.35-3.66-1.67-8-.62-9.43,1.05-1.43,2.64-3.82,6.36-3.55,3.29.24,3.78.81,6.05,2.62-.27-4.98-3.29-8.37-3.29-8.37h9.93c-1.82,1.92-3.44,6.32-3.23,8.33,2.22-1.77,2.72-2.33,5.99-2.57,3.72-.28,5.3,2.12,6.36,3.55,1.05,1.43,2.73,5.77-.62,9.43Z" style="fill:#151515;"/><path d="m119.99,169.37c-3.35,3.66-8.5,1.49-8.5,1.49,1.44,1.54,2.4,2.76,2.22,5.28,0,.09,0,.17,0,.26,0,4.01-3.25,7.26-7.26,7.26s-7.26-3.25-7.26-7.26c0-.5.05-1,.15-1.47.17-1.74,1.03-2.8,2.21-4.07,0,0-5.15,2.17-8.5-1.49-3.35-3.66-1.67-8-.62-9.43,1.05-1.43,2.64-3.82,6.36-3.55,3.29.24,3.78.81,6.05,2.62-.27-4.98-3.29-8.37-3.29-8.37h9.93c-1.82,1.92-3.44,6.32-3.23,8.33,2.22-1.77,2.72-2.33,5.99-2.57,3.72-.28,5.3,2.12,6.36,3.55s2.73,5.77-.62,9.43Z" style="fill:#151515;"/><text transform="translate(11.81 28.2)" style="font-family:Cafe24Ssurround, &apos;Cafe24 Ssurround&apos;; font-size:25px;"><tspan x="0" y="0">5</tspan></text><text transform="translate(148.19 195.71) rotate(-180)" style="font-family:Cafe24Ssurround, &apos;Cafe24 Ssurround&apos;; font-size:25px;"><tspan x="0" y="0">5</tspan></text></svg>