<?xml version="1.0" encoding="UTF-8"?><svg id="Objects" xmlns="http://www.w3.org/2000/svg" viewBox="0 0 160 223.91"><rect x=".5" y=".5" width="159" height="222.91" rx="16.72" ry="16.72" style="fill:#fff;"/><path d="m142.78,1c8.95,0,16.22,7.28,16.22,16.22v189.46c0,8.95-7.28,16.22-16.22,16.22H17.22c-8.95,0-16.22-7.28-16.22-16.22V17.22C1,8.28,8.28,1,17.22,1h125.55M142.78,0H17.22C7.71,0,0,7.71,0,17.22v189.46c0,9.51,7.71,17.22,17.22,17.22h125.55c9.51,0,17.22-7.71,17.22-17.22V17.22C160,7.71,152.29,0,142.78,0h0Z" style="fill:#a5a5a5;"/><path d="m98.97,53.2c-4.72-5.16-11.98-2.1-11.98-2.1,2.03-2.17,3.38-3.89,3.13-7.44,0-.12,0-.24,0-.36,0-5.65-4.58-10.23-10.23-10.23s-10.23,4.58-10.23,10.23c0,.71.07,1.41.21,2.08.23,2.46,1.45,3.94,3.12,5.73,0,0-7.26-3.06-11.98,2.1-4.72,5.16-2.36,11.28-.87,13.29,1.49,2.01,3.71,5.39,8.96,5,4.64-.34,5.33-1.14,8.52-3.69-.38,7.01-4.63,11.8-4.63,11.8h13.99c-2.57-2.7-4.85-8.91-4.55-11.73,3.12,2.5,3.84,3.28,8.44,3.62,5.25.39,7.47-2.99,8.96-5,1.49-2.01,3.85-8.13-.87-13.29Z" style="fill:#151515;"/><path d="m98.97,108.82c-4.72-5.16-11.98-2.1-11.98-2.1,2.03-2.17,3.38-3.89,3.13-7.44,0-.12,0-.24,0-.36,0-5.65-4.58-10.23-10.23-10.23s-10.23,4.58-10.23,10.23c0,.71.07,1.41.21,2.08.23,2.46,1.45,3.94,3.12,5.73,0,0-7.26-3.06-11.98,2.1-4.72,5.16-2.36,11.28-.87,13.29,1.49,2.01,3.71,5.39,8.96,5,4.64-.34,5.33-1.14,8.52-3.69-.38,7.01-4.63,11.8-4.63,11.8h13.99c-2.57-2.7-4.85-8.9-4.55-11.73,3.12,2.5,3.84,3.28,8.44,3.62,5.25.39,7.47-2.99,8.96-5,1.49-2.01,3.85-8.13-.87-13.29Z" style="fill:#151515;"/><path d="m98.97,170.71c-4.72,5.16-11.98,2.1-11.98,2.1,2.03,2.17,3.38,3.89,3.13,7.44,0,.12,0,.24,0,.36,0,5.65-4.58,10.23-10.23,10.23s-10.23-4.58-10.23-10.23c0-.71.07-1.41.21-2.08.23-2.46,1.45-3.94,3.12-5.73,0,0-7.26,3.06-11.98-2.1-4.72-5.16-2.36-11.28-.87-13.29,1.49-2.01,3.71-5.39,8.96-5,4.64.34,5.33,1.14,8.52,3.69-.38-7.01-4.63-11.8-4.63-11.8h13.99c-2.57,2.7-4.85,8.91-4.55,11.73,3.12-2.5,3.84-3.28,8.44-3.62,5.25-.39,7.47,2.99,8.96,5,1.49,2.01,3.85,8.13-.87,13.29Z" style="fill:#151515;"/><text transform="translate(11.72 28.2)" style="font-family:Cafe24Ssurround, &apos;Cafe24 Ssurround&apos;; font-size:25px;"><tspan x="0" y="0">3</tspan></text><text transform="translate(148.28 195.71) rotate(-180)" style="font-family:Cafe24Ssurround, &apos;Cafe24 Ssurround&apos;; font-size:25px;"><tspan x="0" y="0">3</tspan></text></svg>