<?xml version="1.0" encoding="UTF-8"?><svg id="Objects" xmlns="http://www.w3.org/2000/svg" viewBox="0 0 160 223.91"><rect x=".5" y=".5" width="159" height="222.91" rx="16.72" ry="16.72" style="fill:#fff;"/><path d="m142.78,1c8.95,0,16.22,7.28,16.22,16.22v189.46c0,8.95-7.28,16.22-16.22,16.22H17.22c-8.95,0-16.22-7.28-16.22-16.22V17.22C1,8.28,8.28,1,17.22,1h125.55M142.78,0H17.22C7.71,0,0,7.71,0,17.22v189.46c0,9.51,7.71,17.22,17.22,17.22h125.55c9.51,0,17.22-7.71,17.22-17.22V17.22C160,7.71,152.29,0,142.78,0h0Z" style="fill:#a5a5a5;"/><path d="m72.26,59.28c-4.68-5.11-11.86-2.08-11.86-2.08,2.01-2.15,3.35-3.85,3.1-7.37,0-.12,0-.24,0-.36,0-5.59-4.54-10.13-10.13-10.13s-10.13,4.54-10.13,10.13c0,.7.07,1.39.21,2.06.23,2.43,1.43,3.9,3.09,5.67,0,0-7.19-3.03-11.86,2.08-4.68,5.11-2.34,11.17-.87,13.16,1.47,1.99,3.68,5.34,8.88,4.95,4.6-.34,5.28-1.13,8.44-3.65-.38,6.95-4.59,11.69-4.59,11.69h13.85c-2.55-2.68-4.8-8.82-4.51-11.62,3.09,2.47,3.8,3.25,8.36,3.58,5.2.39,7.4-2.96,8.88-4.95,1.47-1.99,3.81-8.05-.87-13.16Z" style="fill:#151515;"/><path d="m125.32,59.28c-4.68-5.11-11.86-2.08-11.86-2.08,2.01-2.15,3.35-3.85,3.1-7.37,0-.12,0-.24,0-.36,0-5.59-4.54-10.13-10.13-10.13s-10.13,4.54-10.13,10.13c0,.7.07,1.39.21,2.06.23,2.43,1.43,3.9,3.09,5.67,0,0-7.19-3.03-11.86,2.08s-2.34,11.17-.87,13.16c1.47,1.99,3.68,5.34,8.88,4.95,4.6-.34,5.28-1.13,8.44-3.65-.38,6.95-4.59,11.69-4.59,11.69h13.85c-2.55-2.68-4.8-8.82-4.51-11.62,3.09,2.47,3.8,3.25,8.36,3.58,5.2.39,7.4-2.96,8.88-4.95,1.47-1.99,3.81-8.05-.87-13.16Z" style="fill:#151515;"/><path d="m73.78,164.63c-4.68,5.11-11.86,2.08-11.86,2.08,2.01,2.15,3.35,3.85,3.1,7.37,0,.12,0,.24,0,.36,0,5.59-4.54,10.13-10.13,10.13s-10.13-4.54-10.13-10.13c0-.7.07-1.39.21-2.06.23-2.43,1.43-3.9,3.09-5.67,0,0-7.19,3.03-11.86-2.08s-2.34-11.17-.87-13.16,3.68-5.34,8.88-4.95c4.6.34,5.28,1.13,8.44,3.65-.38-6.95-4.59-11.69-4.59-11.69h13.85c-2.55,2.68-4.8,8.82-4.51,11.62,3.09-2.47,3.8-3.25,8.36-3.58,5.2-.39,7.4,2.96,8.88,4.95,1.47,1.99,3.81,8.05-.87,13.16Z" style="fill:#151515;"/><path d="m124.68,164.27c-4.14,4.52-10.49,1.84-10.49,1.84,1.78,1.9,2.96,3.41,2.74,6.52,0,.11,0,.21,0,.32,0,4.95-4.01,8.96-8.96,8.96s-8.96-4.01-8.96-8.96c0-.62.06-1.23.19-1.82.2-2.15,1.27-3.45,2.73-5.02,0,0-6.36,2.68-10.49-1.84-4.14-4.52-2.07-9.88-.77-11.64,1.3-1.76,3.25-4.72,7.85-4.38,4.07.3,4.67,1,7.47,3.23-.33-6.14-4.06-10.34-4.06-10.34h12.25c-2.25,2.37-4.25,7.8-3.99,10.28,2.74-2.19,3.36-2.87,7.39-3.17,4.6-.34,6.55,2.62,7.85,4.38,1.3,1.76,3.37,7.12-.77,11.64Z" style="fill:#151515;"/><text transform="translate(12.01 28.2)" style="font-family:Cafe24Ssurround, &apos;Cafe24 Ssurround&apos;; font-size:25px;"><tspan x="0" y="0">4</tspan></text><text transform="translate(147.99 195.71) rotate(-180)" style="font-family:Cafe24Ssurround, &apos;Cafe24 Ssurround&apos;; font-size:25px;"><tspan x="0" y="0">4</tspan></text></svg>