<?xml version="1.0" encoding="UTF-8"?><svg id="Objects" xmlns="http://www.w3.org/2000/svg" viewBox="0 0 160 223.91"><path d="m17.22.5h125.55c9.23,0,16.72,7.49,16.72,16.72v189.46c0,9.23-7.49,16.72-16.72,16.72H17.22c-9.23,0-16.72-7.49-16.72-16.72V17.22C.5,7.99,7.99.5,17.22.5Z" style="fill:#fff;"/><path d="m142.78,1c8.95,0,16.22,7.28,16.22,16.22v189.46c0,8.95-7.28,16.22-16.22,16.22H17.22c-8.95,0-16.22-7.28-16.22-16.22V17.22C1,8.28,8.28,1,17.22,1h125.55M142.78,0H17.22C7.71,0,0,7.71,0,17.22v189.46c0,9.51,7.71,17.22,17.22,17.22h125.55c9.51,0,17.22-7.71,17.22-17.22V17.22C160,7.71,152.29,0,142.78,0h0Z" style="fill:#a5a5a5;"/><path d="m90.64,71.26c-2.85-3.12-7.24-1.27-7.24-1.27,1.23-1.31,2.04-2.35,1.89-4.5,0-.07,0-.15,0-.22,0-3.41-2.77-6.18-6.18-6.18s-6.18,2.77-6.18,6.18c0,.43.04.85.13,1.26.14,1.49.87,2.38,1.89,3.46,0,0-4.38-1.85-7.24,1.27-2.85,3.12-1.43,6.82-.53,8.03.9,1.22,2.24,3.26,5.42,3.02,2.81-.21,3.22-.69,5.15-2.23-.23,4.24-2.8,7.13-2.8,7.13h8.45c-1.55-1.63-2.93-5.38-2.75-7.09,1.89,1.51,2.32,1.98,5.1,2.19,3.17.24,4.52-1.81,5.42-3.02.9-1.22,2.32-4.91-.53-8.03Z" style="fill:#151515;"/><path d="m60.25,50.02c-2.85-3.12-7.24-1.27-7.24-1.27,1.23-1.31,2.04-2.35,1.89-4.5,0-.07,0-.15,0-.22,0-3.41-2.77-6.18-6.18-6.18s-6.18,2.77-6.18,6.18c0,.43.04.85.13,1.26.14,1.49.87,2.38,1.89,3.46,0,0-4.38-1.85-7.24,1.27s-1.43,6.82-.53,8.03c.9,1.22,2.24,3.26,5.42,3.02,2.81-.21,3.22-.69,5.15-2.23-.23,4.24-2.8,7.13-2.8,7.13h8.45c-1.55-1.63-2.93-5.38-2.75-7.09,1.89,1.51,2.32,1.98,5.1,2.19,3.17.24,4.52-1.81,5.42-3.02.9-1.22,2.32-4.91-.53-8.03Z" style="fill:#151515;"/><path d="m60.25,90.05c-2.85-3.12-7.24-1.27-7.24-1.27,1.23-1.31,2.04-2.35,1.89-4.5,0-.07,0-.15,0-.22,0-3.41-2.77-6.18-6.18-6.18s-6.18,2.77-6.18,6.18c0,.43.04.85.13,1.26.14,1.49.87,2.38,1.89,3.46,0,0-4.38-1.85-7.24,1.27-2.85,3.12-1.43,6.82-.53,8.03.9,1.22,2.24,3.26,5.42,3.02,2.81-.21,3.22-.69,5.15-2.23-.23,4.24-2.8,7.13-2.8,7.13h8.45c-1.55-1.63-2.93-5.38-2.75-7.09,1.89,1.51,2.32,1.98,5.1,2.19,3.17.24,4.52-1.81,5.42-3.02.9-1.22,2.32-4.91-.53-8.03Z" style="fill:#151515;"/><path d="m60.25,173.89c-2.85,3.12-7.24,1.27-7.24,1.27,1.23,1.31,2.04,2.35,1.89,4.5,0,.07,0,.15,0,.22,0,3.41-2.77,6.18-6.18,6.18s-6.18-2.77-6.18-6.18c0-.43.04-.85.13-1.26.14-1.49.87-2.38,1.89-3.46,0,0-4.38,1.85-7.24-1.27s-1.43-6.82-.53-8.03c.9-1.22,2.24-3.26,5.42-3.02,2.81.21,3.22.69,5.15,2.23-.23-4.24-2.8-7.13-2.8-7.13h8.45c-1.55,1.63-2.93,5.38-2.75,7.09,1.89-1.51,2.32-1.98,5.1-2.19,3.17-.24,4.52,1.81,5.42,3.02.9,1.22,2.32,4.91-.53,8.03Z" style="fill:#151515;"/><path d="m122.68,50.02c-2.85-3.12-7.24-1.27-7.24-1.27,1.23-1.31,2.04-2.35,1.89-4.5,0-.07,0-.15,0-.22,0-3.41-2.77-6.18-6.18-6.18s-6.18,2.77-6.18,6.18c0,.43.04.85.13,1.26.14,1.49.87,2.38,1.89,3.46,0,0-4.38-1.85-7.24,1.27-2.85,3.12-1.43,6.82-.53,8.03s2.24,3.26,5.42,3.02c2.81-.21,3.22-.69,5.15-2.23-.23,4.24-2.8,7.13-2.8,7.13h8.45c-1.55-1.63-2.93-5.38-2.75-7.09,1.89,1.51,2.32,1.98,5.1,2.19,3.17.24,4.52-1.81,5.42-3.02.9-1.22,2.32-4.91-.53-8.03Z" style="fill:#151515;"/><path d="m122.68,90.05c-2.85-3.12-7.24-1.27-7.24-1.27,1.23-1.31,2.04-2.35,1.89-4.5,0-.07,0-.15,0-.22,0-3.41-2.77-6.18-6.18-6.18s-6.18,2.77-6.18,6.18c0,.43.04.85.13,1.26.14,1.49.87,2.38,1.89,3.46,0,0-4.38-1.85-7.24,1.27-2.85,3.12-1.43,6.82-.53,8.03.9,1.22,2.24,3.26,5.42,3.02,2.81-.21,3.22-.69,5.15-2.23-.23,4.24-2.8,7.13-2.8,7.13h8.45c-1.55-1.63-2.93-5.38-2.75-7.09,1.89,1.51,2.32,1.98,5.1,2.19,3.17.24,4.52-1.81,5.42-3.02.9-1.22,2.32-4.91-.53-8.03Z" style="fill:#151515;"/><path d="m122.68,173.89c-2.85,3.12-7.24,1.27-7.24,1.27,1.23,1.31,2.04,2.35,1.89,4.5,0,.07,0,.15,0,.22,0,3.41-2.77,6.18-6.18,6.18s-6.18-2.77-6.18-6.18c0-.43.04-.85.13-1.26.14-1.49.87-2.38,1.89-3.46,0,0-4.38,1.85-7.24-1.27-2.85-3.12-1.43-6.82-.53-8.03.9-1.22,2.24-3.26,5.42-3.02,2.81.21,3.22.69,5.15,2.23-.23-4.24-2.8-7.13-2.8-7.13h8.45c-1.55,1.63-2.93,5.38-2.75,7.09,1.89-1.51,2.32-1.98,5.1-2.19,3.17-.24,4.52,1.81,5.42,3.02.9,1.22,2.32,4.91-.53,8.03Z" style="fill:#151515;"/><path d="m60.25,133.86c-2.85,3.12-7.24,1.27-7.24,1.27,1.23,1.31,2.04,2.35,1.89,4.5,0,.07,0,.15,0,.22,0,3.41-2.77,6.18-6.18,6.18s-6.18-2.77-6.18-6.18c0-.43.04-.85.13-1.26.14-1.49.87-2.38,1.89-3.46,0,0-4.38,1.85-7.24-1.27-2.85-3.12-1.43-6.82-.53-8.03.9-1.22,2.24-3.26,5.42-3.02,2.81.21,3.22.69,5.15,2.23-.23-4.24-2.8-7.13-2.8-7.13h8.45c-1.55,1.63-2.93,5.38-2.75,7.09,1.89-1.51,2.32-1.98,5.1-2.19,3.17-.24,4.52,1.81,5.42,3.02.9,1.22,2.32,4.91-.53,8.03Z" style="fill:#151515;"/><path d="m122.68,133.86c-2.85,3.12-7.24,1.27-7.24,1.27,1.23,1.31,2.04,2.35,1.89,4.5,0,.07,0,.15,0,.22,0,3.41-2.77,6.18-6.18,6.18s-6.18-2.77-6.18-6.18c0-.43.04-.85.13-1.26.14-1.49.87-2.38,1.89-3.46,0,0-4.38,1.85-7.24-1.27-2.85-3.12-1.43-6.82-.53-8.03.9-1.22,2.24-3.26,5.42-3.02,2.81.21,3.22.69,5.15,2.23-.23-4.24-2.8-7.13-2.8-7.13h8.45c-1.55,1.63-2.93,5.38-2.75,7.09,1.89-1.51,2.32-1.98,5.1-2.19,3.17-.24,4.52,1.81,5.42,3.02.9,1.22,2.32,4.91-.53,8.03Z" style="fill:#151515;"/><path d="m90.64,150.28c-2.85,3.12-7.24,1.27-7.24,1.27,1.23,1.31,2.04,2.35,1.89,4.5,0,.07,0,.15,0,.22,0,3.41-2.77,6.18-6.18,6.18s-6.18-2.77-6.18-6.18c0-.43.04-.85.13-1.26.14-1.49.87-2.38,1.89-3.46,0,0-4.38,1.85-7.24-1.27-2.85-3.12-1.43-6.82-.53-8.03.9-1.22,2.24-3.26,5.42-3.02,2.81.21,3.22.69,5.15,2.23-.23-4.24-2.8-7.13-2.8-7.13h8.45c-1.55,1.63-2.93,5.38-2.75,7.09,1.89-1.51,2.32-1.98,5.1-2.19,3.17-.24,4.52,1.81,5.42,3.02.9,1.22,2.32,4.91-.53,8.03Z" style="fill:#151515;"/><text transform="translate(8.88 28.2)" style="font-family:Cafe24Ssurround, &apos;Cafe24 Ssurround&apos;; font-size:25px;"><tspan x="0" y="0">10</tspan></text><text transform="translate(151.12 195.71) rotate(-180)" style="font-family:Cafe24Ssurround, &apos;Cafe24 Ssurround&apos;; font-size:25px;"><tspan x="0" y="0">10</tspan></text></svg>