<?xml version="1.0" encoding="UTF-8"?><svg id="Objects" xmlns="http://www.w3.org/2000/svg" viewBox="0 0 160 223.91"><rect x=".5" y=".5" width="159" height="222.91" rx="16.72" ry="16.72" style="fill:#fff;"/><path d="m142.78,1c8.95,0,16.22,7.28,16.22,16.22v189.46c0,8.95-7.28,16.22-16.22,16.22H17.22c-8.95,0-16.22-7.28-16.22-16.22V17.22C1,8.28,8.28,1,17.22,1h125.55M142.78,0H17.22C7.71,0,0,7.71,0,17.22v189.46c0,9.51,7.71,17.22,17.22,17.22h125.55c9.51,0,17.22-7.71,17.22-17.22V17.22C160,7.71,152.29,0,142.78,0h0Z" style="fill:#a5a5a5;"/><path d="m102.21,155.91c-5.53,6.04-14.02,2.46-14.02,2.46,2.37,2.54,3.96,4.55,3.66,8.72,0,.14.01.28.01.42,0,6.61-5.36,11.98-11.98,11.98s-11.98-5.36-11.98-11.98c0-.83.09-1.65.25-2.43.27-2.88,1.7-4.62,3.65-6.71,0,0-8.5,3.58-14.02-2.46-5.53-6.04-2.76-13.21-1.02-15.56,1.74-2.35,4.35-6.31,10.49-5.85,5.44.4,6.24,1.33,9.98,4.32-.45-8.21-5.43-13.82-5.43-13.82h16.38c-3.01,3.17-5.68,10.43-5.33,13.74,3.66-2.92,4.49-3.84,9.88-4.24,6.14-.46,8.75,3.5,10.49,5.85,1.74,2.35,4.5,9.52-1.02,15.56Z" style="fill:#151515;"/><path d="m102.21,68c-5.53-6.04-14.02-2.46-14.02-2.46,2.37-2.54,3.96-4.55,3.66-8.72,0-.14.01-.28.01-.42,0-6.61-5.36-11.98-11.98-11.98s-11.98,5.36-11.98,11.98c0,.83.09,1.65.25,2.43.27,2.88,1.7,4.62,3.65,6.71,0,0-8.5-3.58-14.02,2.46-5.53,6.04-2.76,13.21-1.02,15.56,1.74,2.35,4.35,6.31,10.49,5.85,5.44-.4,6.24-1.33,9.98-4.32-.45,8.21-5.43,13.82-5.43,13.82h16.38c-3.01-3.17-5.68-10.43-5.33-13.74,3.66,2.92,4.49,3.84,9.88,4.24,6.14.46,8.75-3.5,10.49-5.85,1.74-2.35,4.5-9.52-1.02-15.56Z" style="fill:#151515;"/><text transform="translate(12.13 28.2)" style="font-family:Cafe24Ssurround, &apos;Cafe24 Ssurround&apos;; font-size:25px;"><tspan x="0" y="0">2</tspan></text><text transform="translate(147.87 195.71) rotate(-180)" style="font-family:Cafe24Ssurround, &apos;Cafe24 Ssurround&apos;; font-size:25px;"><tspan x="0" y="0">2</tspan></text></svg>