<?xml version="1.0" encoding="UTF-8"?><svg id="Objects" xmlns="http://www.w3.org/2000/svg" viewBox="0 0 160 223.91"><rect x=".5" y=".5" width="159" height="222.91" rx="16.72" ry="16.72" style="fill:#fff;"/><path d="m142.78,1c8.95,0,16.22,7.28,16.22,16.22v189.46c0,8.95-7.28,16.22-16.22,16.22H17.22c-8.95,0-16.22-7.28-16.22-16.22V17.22C1,8.28,8.28,1,17.22,1h125.55M142.78,0H17.22C7.71,0,0,7.71,0,17.22v189.46c0,9.51,7.71,17.22,17.22,17.22h125.55c9.51,0,17.22-7.71,17.22-17.22V17.22C160,7.71,152.29,0,142.78,0h0Z" style="fill:#a5a5a5;"/><path d="m109.65,107.06c-7.38-8.06-18.72-3.28-18.72-3.28,3.17-3.39,5.29-6.08,4.89-11.63,0-.19.01-.38.01-.57,0-8.83-7.16-15.99-15.99-15.99s-15.99,7.16-15.99,15.99c0,1.11.11,2.2.33,3.25.36,3.84,2.26,6.16,4.88,8.95,0,0-11.34-4.78-18.72,3.28-7.38,8.06-3.69,17.63-1.37,20.77,2.32,3.14,5.8,8.42,14.01,7.81,7.26-.54,8.33-1.78,13.32-5.76-.6,10.96-7.24,18.45-7.24,18.45h21.86c-4.02-4.23-7.58-13.92-7.11-18.34,4.88,3.9,6,5.12,13.19,5.66,8.2.61,11.68-4.67,14.01-7.81,2.32-3.14,6.01-12.71-1.37-20.77Z" style="fill:#151515;"/><text transform="translate(11.91 28.2)" style="font-family:Cafe24Ssurround, &apos;Cafe24 Ssurround&apos;; font-size:25px;"><tspan x="0" y="0">A</tspan></text><text transform="translate(148.09 195.71) rotate(-180)" style="font-family:Cafe24Ssurround, &apos;Cafe24 Ssurround&apos;; font-size:25px;"><tspan x="0" y="0">A</tspan></text></svg>