<?xml version="1.0" encoding="UTF-8"?><svg id="_레이어_1" xmlns="http://www.w3.org/2000/svg" viewBox="0 0 300 300"><circle cx="150" cy="150" r="150" style="fill:#3fa82c;"/><path d="m28.47,167.49v-36.77c0-6.6-5.4-12-12-12H3.26c-2.13,10.06-3.26,20.49-3.26,31.19,0,10.13,1.01,20.01,2.92,29.58h13.55c6.6,0,12-5.4,12-12Z" style="fill:#f2eee9;"/><path d="m296.77,118.83h-13.24c-6.6,0-12,5.4-12,12v36.77c0,6.6,5.4,12,12,12h13.53c1.93-9.6,2.94-19.52,2.94-29.68s-1.12-21.05-3.23-31.08Z" style="fill:#f2eee9;"/><path d="m227.2,245.69l-31.84,18.38c-5.72,3.3-7.69,10.68-4.39,16.39l6.75,11.69c19.62-6.58,37.43-17.1,52.48-30.63l-6.61-11.44c-3.3-5.72-10.68-7.69-16.39-4.39Z" style="fill:#f2eee9;"/><path d="m106.67,262.98l-31.84-18.38c-5.72-3.3-13.09-1.32-16.39,4.39l-7.71,13.36c15.16,13.4,33.05,23.78,52.73,30.19l7.6-13.17c3.3-5.72,1.32-13.09-4.39-16.39Z" style="fill:#f2eee9;"/><path d="m195.36,35.75l31.84,18.38c5.72,3.3,13.09,1.32,16.39-4.39l6.61-11.44c-15.06-13.53-32.86-24.05-52.48-30.63l-6.75,11.69c-3.3,5.72-1.32,13.09,4.39,16.39Z" style="fill:#f2eee9;"/><path d="m73.55,54.13l31.84-18.38c5.72-3.3,7.69-10.68,4.39-16.39l-6.87-11.89c-19.65,6.49-37.5,16.94-52.62,30.39l6.86,11.88c3.3,5.72,10.68,7.69,16.39,4.39Z" style="fill:#f2eee9;"/><circle cx="150" cy="150" r="94.21" style="fill:#f2eee9;"/><path d="m150,60.79c49.19,0,89.21,40.02,89.21,89.21s-40.02,89.21-89.21,89.21-89.21-40.02-89.21-89.21,40.02-89.21,89.21-89.21m0-10c-54.79,0-99.21,44.42-99.21,99.21s44.42,99.21,99.21,99.21,99.21-44.42,99.21-99.21-44.42-99.21-99.21-99.21h0Z" style="fill:#26871e;"/><path d="m150,38.02c-61.84,0-111.98,50.13-111.98,111.98s50.13,111.98,111.98,111.98,111.98-50.13,111.98-111.98-50.13-111.98-111.98-111.98Zm0,206.26c-52.07,0-94.28-42.21-94.28-94.28s42.21-94.28,94.28-94.28,94.28,42.21,94.28,94.28-42.21,94.28-94.28,94.28Z" style="fill:#fff;"/><path d="m150,55.72c6.47,0,12.79.65,18.89,1.89v-18c-6.14-1.04-12.45-1.6-18.89-1.6s-12.75.55-18.89,1.6v18c6.1-1.24,12.42-1.89,18.89-1.89Z" style="fill:#26871e;"/><path d="m228.87,98.34l12.74-12.74c-7.3-10.37-16.32-19.44-26.63-26.8l-12.73,12.73c10.58,7.05,19.64,16.19,26.62,26.82Z" style="fill:#26871e;"/><path d="m97.96,71.39l-12.74-12.74c-10.34,7.34-19.37,16.4-26.69,26.75l12.74,12.74c7-10.61,16.09-19.72,26.69-26.75Z" style="fill:#26871e;"/><path d="m201.86,228.73l12.74,12.74c10.35-7.32,19.4-16.36,26.75-26.69l-12.74-12.74c-7.03,10.59-16.14,19.68-26.75,26.69Z" style="fill:#26871e;"/><path d="m71.27,201.86l-12.74,12.74c7.32,10.35,16.36,19.4,26.69,26.75l12.74-12.74c-10.59-7.03-19.68-16.14-26.69-26.75Z" style="fill:#26871e;"/><path d="m55.72,150c0-6.47.65-12.79,1.89-18.89h-18c-1.04,6.14-1.6,12.45-1.6,18.89s.55,12.75,1.6,18.89h18c-1.24-6.1-1.89-12.42-1.89-18.89Z" style="fill:#26871e;"/><path d="m244.28,150c0,6.47-.65,12.79-1.89,18.89h18c1.04-6.14,1.6-12.45,1.6-18.89s-.55-12.75-1.6-18.89h-18c1.24,6.1,1.89,12.42,1.89,18.89Z" style="fill:#26871e;"/><path d="m150,244.28c-6.47,0-12.79-.65-18.89-1.89v18c6.14,1.04,12.45,1.6,18.89,1.6s12.75-.55,18.89-1.6v-18c-6.1,1.24-12.42,1.89-18.89,1.89Z" style="fill:#26871e;"/><path d="m177.22,140.46c-7.99-8.72-17.28-17.22-21.17-21.69-2.92-3.35-4.98-5.89-5.83-6.96v-.54s-.08.1-.22.27c-.14-.18-.22-.27-.22-.27v.54c-.85,1.06-2.92,3.61-5.83,6.96-3.89,4.46-13.18,12.97-21.17,21.69-7.99,8.72-8.64,17.43-7.13,24.66,1.51,7.23,9.07,14.03,20.96,12.54,3.73-.47,6.46-2.26,8.45-4.49-1.34,10.23-6.86,15.56-6.86,15.56h23.04c-4.21-4.7-5.7-11.36-6.23-15.5,1.98,2.2,4.7,3.97,8.4,4.43,11.88,1.49,19.44-5.31,20.96-12.54,1.51-7.23.86-15.95-7.13-24.66Z" style="fill:#26871e;"/></svg>