<?xml version="1.0" encoding="UTF-8"?><svg id="_레이어_1" xmlns="http://www.w3.org/2000/svg" viewBox="0 0 300 300"><circle cx="150" cy="150" r="150" style="fill:#c63e8f;"/><path d="m28.47,167.49v-36.77c0-6.6-5.4-12-12-12H3.26c-2.13,10.06-3.26,20.49-3.26,31.19,0,10.13,1.01,20.01,2.92,29.58h13.55c6.6,0,12-5.4,12-12Z" style="fill:#f2eee9;"/><path d="m296.77,118.83h-13.24c-6.6,0-12,5.4-12,12v36.77c0,6.6,5.4,12,12,12h13.53c1.93-9.6,2.94-19.52,2.94-29.68s-1.12-21.05-3.23-31.08Z" style="fill:#f2eee9;"/><path d="m227.2,245.69l-31.84,18.38c-5.72,3.3-7.69,10.68-4.39,16.39l6.75,11.69c19.62-6.58,37.43-17.1,52.48-30.63l-6.61-11.44c-3.3-5.72-10.68-7.69-16.39-4.39Z" style="fill:#f2eee9;"/><path d="m106.67,262.98l-31.84-18.38c-5.72-3.3-13.09-1.32-16.39,4.39l-7.71,13.36c15.16,13.4,33.05,23.78,52.73,30.19l7.6-13.17c3.3-5.72,1.32-13.09-4.39-16.39Z" style="fill:#f2eee9;"/><path d="m195.36,35.75l31.84,18.38c5.72,3.3,13.09,1.32,16.39-4.39l6.61-11.44c-15.06-13.53-32.86-24.05-52.48-30.63l-6.75,11.69c-3.3,5.72-1.32,13.09,4.39,16.39Z" style="fill:#f2eee9;"/><path d="m73.55,54.13l31.84-18.38c5.72-3.3,7.69-10.68,4.39-16.39l-6.87-11.89c-19.65,6.49-37.5,16.94-52.62,30.39l6.86,11.88c3.3,5.72,10.68,7.69,16.39,4.39Z" style="fill:#f2eee9;"/><circle cx="150" cy="150" r="94.21" style="fill:#f2eee9;"/><path d="m150,60.79c49.19,0,89.21,40.02,89.21,89.21s-40.02,89.21-89.21,89.21-89.21-40.02-89.21-89.21,40.02-89.21,89.21-89.21m0-10c-54.79,0-99.21,44.42-99.21,99.21s44.42,99.21,99.21,99.21,99.21-44.42,99.21-99.21-44.42-99.21-99.21-99.21h0Z" style="fill:#a80b61;"/><path d="m150,38.02c-61.84,0-111.98,50.13-111.98,111.98s50.13,111.98,111.98,111.98,111.98-50.13,111.98-111.98-50.13-111.98-111.98-111.98Zm0,206.26c-52.07,0-94.28-42.21-94.28-94.28s42.21-94.28,94.28-94.28,94.28,42.21,94.28,94.28-42.21,94.28-94.28,94.28Z" style="fill:#fff;"/><path d="m150,55.72c6.47,0,12.79.65,18.89,1.89v-18c-6.14-1.04-12.45-1.6-18.89-1.6s-12.75.55-18.89,1.6v18c6.1-1.24,12.42-1.89,18.89-1.89Z" style="fill:#a80b61;"/><path d="m228.87,98.34l12.74-12.74c-7.3-10.37-16.32-19.44-26.63-26.8l-12.73,12.73c10.58,7.05,19.64,16.19,26.62,26.82Z" style="fill:#a80b61;"/><path d="m97.96,71.39l-12.74-12.74c-10.34,7.34-19.37,16.4-26.69,26.75l12.74,12.74c7-10.61,16.09-19.72,26.69-26.75Z" style="fill:#a80b61;"/><path d="m201.86,228.73l12.74,12.74c10.35-7.32,19.4-16.36,26.75-26.69l-12.74-12.74c-7.03,10.59-16.14,19.68-26.75,26.69Z" style="fill:#a80b61;"/><path d="m71.27,201.86l-12.74,12.74c7.32,10.35,16.36,19.4,26.69,26.75l12.74-12.74c-10.59-7.03-19.68-16.14-26.69-26.75Z" style="fill:#a80b61;"/><path d="m55.72,150c0-6.47.65-12.79,1.89-18.89h-18c-1.04,6.14-1.6,12.45-1.6,18.89s.55,12.75,1.6,18.89h18c-1.24-6.1-1.89-12.42-1.89-18.89Z" style="fill:#a80b61;"/><path d="m244.28,150c0,6.47-.65,12.79-1.89,18.89h18c1.04-6.14,1.6-12.45,1.6-18.89s-.55-12.75-1.6-18.89h-18c1.24,6.1,1.89,12.42,1.89,18.89Z" style="fill:#a80b61;"/><path d="m150,244.28c-6.47,0-12.79-.65-18.89-1.89v18c6.14,1.04,12.45,1.6,18.89,1.6s12.75-.55,18.89-1.6v-18c-6.1,1.24-12.42,1.89-18.89,1.89Z" style="fill:#a80b61;"/><path d="m167.66,115.63c-13.76-.33-16.93,10.18-17.66,15.24-.73-5.06-3.9-15.57-17.66-15.24-18.1.44-20.5,20.72-14.17,30.97,6.32,10.25,9.59,13.52,15.92,20.06,5.96,6.16,13.07,13.1,15.7,17.34,0,0,.14.5.22.36.08.13.22-.36.22-.36,2.63-4.25,9.74-11.18,15.7-17.34,6.32-6.54,9.59-9.81,15.92-20.06,6.32-10.25,3.93-30.53-14.17-30.97Z" style="fill:#a80b61;"/></svg>