<?xml version="1.0" encoding="UTF-8"?><svg id="Objects" xmlns="http://www.w3.org/2000/svg" viewBox="0 0 160 223.91"><rect x="12.77" y="18.51" width="134.47" height="186.89" rx="19.94" ry="19.94" style="fill:#ffde76;"/><path d="m142.78,1c8.95,0,16.22,7.28,16.22,16.22v189.46c0,8.95-7.28,16.22-16.22,16.22H17.22c-8.95,0-16.22-7.28-16.22-16.22V17.22C1,8.28,8.28,1,17.22,1h125.55m0-1H17.22C7.71,0,0,7.71,0,17.22v189.46c0,9.52,7.71,17.23,17.22,17.23h125.55c9.51,0,17.22-7.71,17.22-17.22V17.22c0-9.51-7.7-17.22-17.21-17.22h0Z" style="fill:#a5a5a5;"/><rect x=".5" y=".5" width="159" height="222.91" rx="16.72" ry="16.72" style="fill:#fff;"/><path d="m142.78,1c8.95,0,16.22,7.28,16.22,16.22v189.46c0,8.95-7.28,16.22-16.22,16.22H17.22c-8.95,0-16.22-7.28-16.22-16.22V17.22C1,8.28,8.28,1,17.22,1h125.55m0-1H17.22C7.71,0,0,7.71,0,17.22v189.46c0,9.51,7.71,17.22,17.22,17.22h125.55c9.51,0,17.22-7.71,17.22-17.22V17.22c0-9.51-7.7-17.22-17.21-17.22h0Z" style="fill:#a5a5a5;"/><path d="m80.33,60.23c.03-.14.04-.28.05-.43-.08-.06-.16-.11-.24-.16.05.2.12.39.19.58h0Z" style="fill:#fff;"/><path d="m80.1,59.12s-.06.05-.1.07c.14.09.27.21.38.33,0-.1-.01-.19-.03-.29-.02-.12-.17-.15-.26-.1h.01Z" style="fill:#fff;"/><path d="m79.62,59.8c0,.14.02.28.05.43.07-.19.14-.38.19-.58-.08.04-.16.1-.24.16h0Z" style="fill:#fff;"/><path d="m79.91,59.12c-.09-.05-.24,0-.26.1-.01.1-.02.2-.03.29.11-.12.24-.24.38-.33-.03-.02-.06-.05-.09-.07h0Z" style="fill:#fff;"/><path d="m80.38,164.11c0-.14-.02-.28-.05-.42-.07.19-.14.38-.19.58.08-.04.16-.1.24-.16Z" style="fill:#fff;"/><path d="m80.1,164.79c.09.05.24,0,.26-.1.01-.1.02-.19.03-.29-.11.12-.24.24-.38.33.03.02.06.05.1.07h-.01Z" style="fill:#fff;"/><path d="m79.67,163.68c-.03.14-.04.28-.05.43.08.06.16.11.24.16-.05-.2-.12-.39-.19-.58h0Z" style="fill:#fff;"/><path d="m79.91,164.79s.06-.05.09-.07c-.14-.09-.27-.21-.38-.33,0,.1.01.19.03.29.02.12.17.15.26.1h0Z" style="fill:#fff;"/><path d="m89.7,37.64c-10.01-1.62-19.26,2.49-22.51,9.45-7.79-.86-14.78,3.48-15.83,10-.05.3-.08.6-.1.9-4.35.51-7.95,3.56-8.62,7.73-.39,2.39.25,4.72,1.61,6.63-1.65.82-2.79,2.51-2.79,4.48,0,2.77,2.24,5.01,5.01,5.01s5.01-2.24,5.01-5.01c0-.05,0-.09,0-.14,4.72.72,9.14-1.56,10.94-5.33.56.15,1.14.27,1.73.37,5.21.84,10.15-.66,13.32-3.63,2.13.99,4.48,1.73,7,2.13,11.57,1.87,22.14-3.91,23.59-12.92,1.45-9-6.75-17.82-18.33-19.69h-.01Z" style="fill:#ffcc3b;"/><path d="m60.04,123.12c0,1.27-.33,2.28-1.01,3.03-.67.76-1.59,1.09-2.73,1.01-2.38-.12-4.61-.47-6.71-1.04s-3.92-1.58-5.46-3c-1.51,1.42-3.29,2.43-5.35,3s-4.28.92-6.65,1.04c-1.15.08-2.06-.26-2.73-1.01-.67-.75-1.01-1.76-1.01-3.03v-3.45c0-2.1,1.23-3.7,3.68-4.81,1.55-.75,2.45-2.04,2.73-3.86h-2.67c-1.15,0-2.06-.37-2.73-1.13-.67-.75-1.01-1.76-1.01-3.03v-2.79c0-1.27.33-2.28,1.01-3.03.67-.75,1.58-1.13,2.73-1.13h2.61c.51,0,.95-.17,1.31-.51.35-.33.71-.71,1.07-1.13s.71-.8,1.07-1.16c.35-.35.79-.53,1.31-.53h9.15c.48,0,.9.18,1.28.53.37.35.73.74,1.07,1.16.33.42.69.79,1.07,1.13.37.34.8.51,1.28.51h2.97c1.15,0,2.06.37,2.73,1.13.67.76,1.01,1.76,1.01,3.03v2.79c0,1.27-.33,2.28-1.01,3.03-.67.76-1.59,1.13-2.73,1.13h-2.73c.35,1.86,1.29,3.15,2.79,3.86,2.45,1.11,3.68,2.71,3.68,4.81v3.45h-.02Zm18.12,23.34c0,1.27-.33,2.28-1.01,3.03-.67.75-1.59,1.13-2.73,1.13h-42.29c-1.15,0-2.06-.37-2.73-1.13-.67-.76-1.01-1.76-1.01-3.03v-14.19c0-1.27.33-2.28,1.01-3.03.67-.75,1.58-1.13,2.73-1.13h7.9c.55,0,1.12.13,1.69.39.57.26,1.15.53,1.72.83s1.15.56,1.72.8c.57.24,1.14.35,1.69.35h12.89c.55,0,1.12-.12,1.69-.35s1.15-.51,1.72-.8c.57-.3,1.15-.57,1.72-.83.57-.26,1.14-.39,1.69-.39h7.84c1.15,0,2.06.37,2.73,1.13.67.76,1.01,1.76,1.01,3.03v14.19h0Zm-15.02-6.77c-6.57,1.19-13.14,1.19-19.72,0v1.42c6.57,1.19,13.14,1.19,19.72,0v-1.42Zm15.02-16.93c0,1.27-.33,2.28-1.01,3.03-.67.76-1.59,1.13-2.73,1.13h-9.15c-1.15,0-2.06-.37-2.73-1.13-.67-.75-1.01-1.76-1.01-3.03v-20.73c0-1.27.33-2.28,1.01-3.03.67-.75,1.58-1.13,2.73-1.13h9.15c1.15,0,2.06.37,2.73,1.13.67.76,1.01,1.76,1.01,3.03,0,0,0,20.73,0,20.73Z" style="fill:#ffde76;"/><path d="m113.5,123.12c0,1.27-.33,2.28-1.01,3.03-.67.76-1.59,1.09-2.73,1.01-2.38-.12-4.61-.47-6.71-1.04s-3.92-1.58-5.46-3c-1.51,1.42-3.29,2.43-5.35,3s-4.28.92-6.65,1.04c-1.15.08-2.06-.26-2.73-1.01-.67-.75-1.01-1.76-1.01-3.03v-3.45c0-2.1,1.23-3.7,3.68-4.81,1.55-.75,2.45-2.04,2.73-3.86h-2.67c-1.15,0-2.06-.37-2.73-1.13-.67-.75-1.01-1.76-1.01-3.03v-2.79c0-1.27.33-2.28,1.01-3.03.67-.75,1.58-1.13,2.73-1.13h2.61c.51,0,.95-.17,1.31-.51.35-.33.71-.71,1.07-1.13s.71-.8,1.07-1.16c.35-.35.79-.53,1.31-.53h9.15c.48,0,.9.18,1.28.53.37.35.73.74,1.07,1.16.33.42.69.79,1.07,1.13.37.34.8.51,1.28.51h2.97c1.15,0,2.06.37,2.73,1.13s1.01,1.76,1.01,3.03v2.79c0,1.27-.33,2.28-1.01,3.03-.67.76-1.59,1.13-2.73,1.13h-2.73c.35,1.86,1.29,3.15,2.79,3.86,2.45,1.11,3.68,2.71,3.68,4.81v3.45h-.02Zm18.12,23.34c0,1.27-.33,2.28-1.01,3.03-.67.75-1.59,1.13-2.73,1.13h-42.29c-1.15,0-2.06-.37-2.73-1.13-.67-.76-1.01-1.76-1.01-3.03v-14.19c0-1.27.33-2.28,1.01-3.03.67-.75,1.58-1.13,2.73-1.13h7.9c.55,0,1.12.13,1.69.39.57.26,1.15.53,1.72.83.57.3,1.15.56,1.72.8.57.24,1.14.35,1.69.35h12.89c.55,0,1.12-.12,1.69-.35.57-.24,1.15-.51,1.72-.8.57-.3,1.15-.57,1.72-.83.57-.26,1.14-.39,1.69-.39h7.84c1.15,0,2.06.37,2.73,1.13.67.76,1.01,1.76,1.01,3.03v14.19h0Zm-15.02-6.77c-6.57,1.19-13.14,1.19-19.72,0v1.42c6.57,1.19,13.14,1.19,19.72,0v-1.42Zm15.02-16.93c0,1.27-.33,2.28-1.01,3.03-.67.76-1.59,1.13-2.73,1.13h-9.15c-1.15,0-2.06-.37-2.73-1.13-.67-.75-1.01-1.76-1.01-3.03v-20.73c0-1.27.33-2.28,1.01-3.03.67-.75,1.58-1.13,2.73-1.13h9.15c1.15,0,2.06.37,2.73,1.13.67.76,1.01,1.76,1.01,3.03v20.73Z" style="fill:#ffde76;"/><path d="m49.97,85.85h-11.54c-1.3,0-2.36,1.06-2.36,2.36v.83c0,1.24.97,2.26,2.19,2.35v10.78h11.53v-10.76h.18c1.3,0,2.36-1.06,2.36-2.36v-.83c0-1.3-1.06-2.36-2.36-2.36h0Z" style="fill:#ffde76;"/><path d="m42.75,106.64c-.57.19-1.07.49-1.51.87l-1.98-2.24c.72-.63,1.57-1.14,2.51-1.46,0,0,.97,2.83.97,2.83Z" style="fill:#fff;"/><path d="m40.19,108.89c-.25.52-.41,1.09-.45,1.68l-2.99-.19c.06-.99.32-1.94.74-2.81l2.69,1.32h0Z" style="fill:#fff;"/><path d="m47.47,104.16l-1.32,2.69c-.52-.25-1.09-.41-1.68-.45l.19-2.99c.99.06,1.94.32,2.81.74Z" style="fill:#fff;"/><path d="m51.24,108.43l-2.83.97c-.19-.57-.49-1.07-.87-1.51l2.25-1.98c.63.72,1.14,1.57,1.46,2.51h0Z" style="fill:#fff;"/><path d="m49.12,116.44c-.72.63-1.57,1.14-2.51,1.46l-.97-2.83c.57-.19,1.07-.49,1.51-.87l1.98,2.25h0Z" style="fill:#fff;"/><path d="m51.63,111.32c-.06.99-.32,1.94-.74,2.81l-2.69-1.32c.25-.52.41-1.09.45-1.68l2.99.19h0Z" style="fill:#fff;"/><path d="m43.91,115.3l-.19,2.99c-.99-.06-1.94-.32-2.81-.74l1.32-2.69c.52.25,1.09.41,1.68.45Z" style="fill:#fff;"/><path d="m40.85,113.8l-2.24,1.98c-.63-.72-1.14-1.57-1.46-2.51l2.83-.97c.19.57.5,1.07.87,1.51Z" style="fill:#fff;"/><path d="m51.63,111.32c.05-.69-.01-1.41-.17-2.12-.06-.26-.13-.51-.22-.76l-2.83.97c-.19-.57-.49-1.07-.87-1.51l2.25-1.98c-.65-.73-1.44-1.33-2.31-1.76l-1.32,2.69c-.52-.25-1.09-.41-1.68-.45l.19-2.99c-.69-.05-1.41.01-2.12.17-.26.06-.51.13-.76.22l.97,2.83c-.57.19-1.07.49-1.51.87l-1.98-2.24c-.73.65-1.33,1.44-1.76,2.31l2.69,1.32c-.25.52-.41,1.09-.45,1.68l-2.99-.19c-.05.69.01,1.41.17,2.12.06.26.13.51.22.76l2.83-.97c.19.57.5,1.07.87,1.51l-2.24,1.98c.65.73,1.44,1.33,2.31,1.76l1.32-2.69c.52.25,1.09.41,1.68.45l-.19,2.99c.69.05,1.41-.01,2.12-.17.26-.06.51-.13.76-.22l-.97-2.83c.57-.19,1.07-.49,1.51-.87l1.98,2.25c.73-.65,1.33-1.44,1.76-2.31l-2.69-1.32c.25-.52.41-1.09.45-1.68l2.99.19h0Z" style="fill:#ffcc3b;"/></svg>